<?xml version="1.0" encoding="UTF-8" standalone="no"?>
<!-- Created with Inkscape (http://www.inkscape.org/) -->

<svg
   xmlns:dc="http://purl.org/dc/elements/1.1/"
   xmlns:cc="http://creativecommons.org/ns#"
   xmlns:rdf="http://www.w3.org/1999/02/22-rdf-syntax-ns#"
   xmlns:svg="http://www.w3.org/2000/svg"
   xmlns="http://www.w3.org/2000/svg"
   xmlns:sodipodi="http://sodipodi.sourceforge.net/DTD/sodipodi-0.dtd"
   xmlns:inkscape="http://www.inkscape.org/namespaces/inkscape"
   width="897"
   height="661"
   viewBox="0 0 237.33124 174.88959"
   version="1.1"
   id="svg8"
   inkscape:version="0.92.3 (unknown)"
   sodipodi:docname="cat.svg">
  <defs
     id="defs2" />
  <sodipodi:namedview
     id="base"
     pagecolor="#ffffff"
     bordercolor="#666666"
     borderopacity="1.0"
     inkscape:pageopacity="0.0"
     inkscape:pageshadow="2"
     inkscape:zoom="0.50222965"
     inkscape:cx="219.64569"
     inkscape:cy="183.97794"
     inkscape:document-units="mm"
     inkscape:current-layer="layer2"
     showgrid="false"
     units="px"
     inkscape:window-width="1360"
     inkscape:window-height="716"
     inkscape:window-x="0"
     inkscape:window-y="0"
     inkscape:window-maximized="1" />
  <metadata
     id="metadata5">
    <rdf:RDF>
      <cc:Work
         rdf:about="">
        <dc:format>image/svg+xml</dc:format>
        <dc:type
           rdf:resource="http://purl.org/dc/dcmitype/StillImage" />
        <dc:title></dc:title>
      </cc:Work>
    </rdf:RDF>
  </metadata>
  <g
     inkscape:groupmode="layer"
     id="layer2"
     inkscape:label="Layer 2">
    <path
       style="fill:#5c5cb0;fill-opacity:1;stroke:none;stroke-width:0.26458332px;stroke-linecap:butt;stroke-linejoin:miter;stroke-opacity:1"
       d="m 30.028594,68.999279 c 0,0 34.769948,-37.667445 88.768736,-40.301531 L 135.39208,7.8884596 c 0,0 2.63409,-2.6670135 4.11576,-2.9633483 1.48167,-0.2963348 3.58894,3.2267567 3.58894,3.2267567 l 11.58999,21.006845 c 0,0 24.20696,12.247402 26.09268,36.33346 1.98725,25.3828 -28.08585,55.705857 -41.64466,63.577917 C 125.92575,136.73908 85.534973,154.2947 37.810392,144.71577 -4.7346259,136.17645 12.159435,100.96619 10.430453,98.710026 L 4.3462438,71.633368 c 0,0 -1.448748,-6.980331 -0.2634088,-8.955896 1.1853393,-1.975566 8.033966,0 8.033966,0 0,0 15.333246,4.745478 17.911793,6.321807 z"
       id="path4547"
       inkscape:connector-curvature="0"
       sodipodi:nodetypes="cccsccsssccscc" />
    <path
       style="fill:#f299f5;fill-opacity:1;stroke:none;stroke-width:0.26458332px;stroke-linecap:butt;stroke-linejoin:miter;stroke-opacity:1"
       d="m 16.763228,85.858217 c 0,0 -1.029772,-2.842353 -1.722888,-7.683146 -0.589099,-4.114324 3.573605,-2.662038 4.074396,-2.584331 l 4.819428,1.897505 c 0,0 2.398073,1.094266 1.536629,2.933565 -0.861443,1.839298 -5.25015,5.56446 -5.25015,5.56446 0,0 -2.16525,1.629756 -3.457415,-0.128053 z"
       id="path4549"
       inkscape:connector-curvature="0"
       sodipodi:nodetypes="csccscc" />
    <path
       sodipodi:nodetypes="csccscc"
       inkscape:connector-curvature="0"
       id="path4551"
       d="m 137.41606,17.587322 c 0,0 -1.82993,2.406399 -3.93396,6.820777 -1.78829,3.751907 2.61806,3.605934 3.11927,3.680984 l 5.1659,-0.375273 c 0,0 2.6152,-0.33001 2.34094,-2.342445 -0.27426,-2.012433 -3.35364,-6.876076 -3.35364,-6.876076 0,0 -1.58127,-2.200908 -3.33852,-0.907929 z"
       style="fill:#f299f5;fill-opacity:1;stroke:none;stroke-width:0.26458332px;stroke-linecap:butt;stroke-linejoin:miter;stroke-opacity:1" />
    <path
       style="fill:#ffffff;fill-opacity:1;stroke:none;stroke-width:0.26458332px;stroke-linecap:butt;stroke-linejoin:miter;stroke-opacity:1"
       d="m 117.15633,74.310215 c 0,0 3.6802,-11.090574 13.46046,-18.110289 5.66384,-3.23007 10.67593,-4.535842 23.33682,-5.615014 1.16842,0.442776 0.58006,4.64822 0.48734,5.659974 -0.32366,3.531787 -4.38543,8.434899 -9.43903,11.639431 -12.76108,8.091921 -22.14476,7.719254 -27.84559,6.425903 z"
       id="path4556"
       inkscape:connector-curvature="0"
       sodipodi:nodetypes="cccsscc" />
    <path
       style="fill:#5c5cb0;fill-opacity:1;stroke:none;stroke-width:0.26458332px;stroke-linecap:butt;stroke-linejoin:miter;stroke-opacity:1"
       d="m 208.11146,67.906907 c 4.58316,-3.036448 15.41369,-4.590416 20.47377,-1.885178 3.90226,2.08624 7.51585,3.837253 6.00683,19.929616 0,0 -18.34642,2.793867 -27.28681,0.186257 0,0 -3.60193,-15.310205 0.80621,-18.230695 z"
       id="path4558"
       inkscape:connector-curvature="0"
       sodipodi:nodetypes="ssccs" />
    <path
       sodipodi:nodetypes="ssccs"
       inkscape:connector-curvature="0"
       id="path4562"
       d="m 51.020301,171.54361 c -2.989872,-3.16046 -4.634539,-10.68377 -2.094217,-14.23213 1.959058,-2.73645 3.598755,-5.26869 19.136772,-4.37516 0,0 2.941728,12.74256 0.547928,18.99082 0,0 -14.714792,2.65625 -17.590483,-0.38353 z"
       style="fill:#5c5cb0;fill-opacity:1;stroke:none;stroke-width:0.21678242px;stroke-linecap:butt;stroke-linejoin:miter;stroke-opacity:1" />
    <path
       sodipodi:nodetypes="ccc"
       inkscape:connector-curvature="0"
       id="path4566"
       d="m 137.92206,66.472261 c 0,0 1.07107,-3.706759 -2.56957,-5.850815 -1.01676,4.831938 2.56011,5.847922 2.56957,5.850815 z"
       style="fill:#000000;fill-opacity:1;stroke:#000000;stroke-width:0.26458332px;stroke-linecap:butt;stroke-linejoin:miter;stroke-opacity:1" />
    <path
       sodipodi:nodetypes="ccc"
       inkscape:connector-curvature="0"
       id="path4574"
       d="m 213.2136,84.122475 c 0,0 1.43479,-1.961892 -0.25606,-4.017289 -1.6458,2.639415 0.25111,4.013523 0.25606,4.017289 z"
       style="fill:#000000;fill-opacity:1;stroke:#000000;stroke-width:0.16667126px;stroke-linecap:butt;stroke-linejoin:miter;stroke-opacity:1" />
    <path
       style="fill:#000000;fill-opacity:1;stroke:#000000;stroke-width:0.16667126px;stroke-linecap:butt;stroke-linejoin:miter;stroke-opacity:1"
       d="m 221.11586,84.122475 c 0,0 1.43479,-1.961892 -0.25606,-4.017289 -1.6458,2.639415 0.25111,4.013523 0.25606,4.017289 z"
       id="path4576"
       inkscape:connector-curvature="0"
       sodipodi:nodetypes="ccc" />
    <path
       sodipodi:nodetypes="ccc"
       inkscape:connector-curvature="0"
       id="path4578"
       d="m 228.55716,83.398101 c 0,0 1.43479,-1.961892 -0.25606,-4.017289 -1.6458,2.639415 0.25111,4.013523 0.25606,4.017289 z"
       style="fill:#000000;fill-opacity:1;stroke:#000000;stroke-width:0.16667126px;stroke-linecap:butt;stroke-linejoin:miter;stroke-opacity:1" />
    <path
       sodipodi:nodetypes="cccsscc"
       inkscape:connector-curvature="0"
       id="path4618"
       d="m 62.80436,109.77356 c 0,0 -10.228975,-5.64913 -22.176287,-4.16875 -6.352123,1.47072 -10.919737,3.91265 -20.951895,11.71128 -0.557789,1.11808 2.728073,3.80788 3.482732,4.48814 2.634303,2.37459 8.944922,3.21989 14.831475,2.14451 14.864399,-2.71549 21.504155,-9.35674 24.813983,-14.17517 z"
       style="fill:#ffffff;fill-opacity:1;stroke:none;stroke-width:0.26458332px;stroke-linecap:butt;stroke-linejoin:miter;stroke-opacity:1" />
    <path
       style="fill:#000000;fill-opacity:1;stroke:#000000;stroke-width:0.26458332px;stroke-linecap:butt;stroke-linejoin:miter;stroke-opacity:1"
       d="m 42.232605,118.10735 c 0,0 -3.302039,-1.99595 -2.082753,-6.04126 4.025654,2.85928 2.08774,6.03271 2.082753,6.04126 z"
       id="path4620"
       inkscape:connector-curvature="0"
       sodipodi:nodetypes="ccc" />
    <path
       style="fill:#000000;fill-opacity:1;stroke:#000000;stroke-width:0.12490581px;stroke-linecap:butt;stroke-linejoin:miter;stroke-opacity:1"
       d="m 66.31229,168.25477 c 0,0 -1.444447,-1.10969 -3.014308,0.12069 1.948319,1.27979 3.011396,-0.11705 3.014308,-0.12069 z"
       id="path4622"
       inkscape:connector-curvature="0"
       sodipodi:nodetypes="ccc" />
    <path
       sodipodi:nodetypes="ccc"
       inkscape:connector-curvature="0"
       id="path4624"
       d="m 66.452242,162.33436 c 0,0 -1.444447,-1.1097 -3.014308,0.12069 1.948318,1.27979 3.011396,-0.11705 3.014308,-0.12069 z"
       style="fill:#000000;fill-opacity:1;stroke:#000000;stroke-width:0.12490581px;stroke-linecap:butt;stroke-linejoin:miter;stroke-opacity:1" />
    <path
       style="fill:#000000;fill-opacity:1;stroke:#000000;stroke-width:0.12490581px;stroke-linecap:butt;stroke-linejoin:miter;stroke-opacity:1"
       d="m 66.041329,156.74647 c 0,0 -1.444454,-1.1097 -3.014308,0.1207 1.948311,1.27978 3.011396,-0.11705 3.014308,-0.1207 z"
       id="path4626"
       inkscape:connector-curvature="0"
       sodipodi:nodetypes="ccc" />
  </g>
</svg>
