<?xml version="1.0" encoding="UTF-8" standalone="no"?>
<!-- Created with Inkscape (http://www.inkscape.org/) -->

<svg
   xmlns:dc="http://purl.org/dc/elements/1.1/"
   xmlns:cc="http://creativecommons.org/ns#"
   xmlns:rdf="http://www.w3.org/1999/02/22-rdf-syntax-ns#"
   xmlns:svg="http://www.w3.org/2000/svg"
   xmlns="http://www.w3.org/2000/svg"
   xmlns:sodipodi="http://sodipodi.sourceforge.net/DTD/sodipodi-0.dtd"
   xmlns:inkscape="http://www.inkscape.org/namespaces/inkscape"
   width="50"
   height="50"
   viewBox="0 0 13.229166 13.229167"
   version="1.1"
   id="svg8"
   inkscape:version="0.92.3 (unknown)"
   sodipodi:docname="bone.svg">
  <defs
     id="defs2" />
  <sodipodi:namedview
     id="base"
     pagecolor="#ffffff"
     bordercolor="#666666"
     borderopacity="1.0"
     inkscape:pageopacity="0.0"
     inkscape:pageshadow="2"
     inkscape:zoom="3.8254477"
     inkscape:cx="-29.862273"
     inkscape:cy="17.040427"
     inkscape:document-units="mm"
     inkscape:current-layer="layer1"
     showgrid="false"
     units="px"
     inkscape:window-width="1360"
     inkscape:window-height="716"
     inkscape:window-x="0"
     inkscape:window-y="0"
     inkscape:window-maximized="1" />
  <metadata
     id="metadata5">
    <rdf:RDF>
      <cc:Work
         rdf:about="">
        <dc:format>image/svg+xml</dc:format>
        <dc:type
           rdf:resource="http://purl.org/dc/dcmitype/StillImage" />
        <dc:title />
      </cc:Work>
    </rdf:RDF>
  </metadata>
  <g
     inkscape:label="Layer 1"
     inkscape:groupmode="layer"
     id="layer1"
     transform="translate(0,-283.77082)">
    <path
       style="opacity:1;fill:#ffffff;fill-opacity:1;stroke:#000000;stroke-width:0.66972321;stroke-linecap:round;stroke-linejoin:bevel;stroke-miterlimit:4;stroke-dasharray:none;stroke-opacity:1;paint-order:normal"
       d="m 3.1854316,285.05721 c 0.5657174,-0.55047 1.4705515,-0.53816 2.0210889,0.0275 0.5503068,0.56555 0.5381956,1.47006 -0.027056,2.02066 -0.014844,0.0139 -0.029985,0.0276 -0.045409,0.0408 l 4.8921465,5.02493 c 0.01354,-0.0152 0.02743,-0.0302 0.04161,-0.0448 0.565549,-0.55031 1.470056,-0.5382 2.020668,0.027 0.55071,0.56548 0.538786,1.47033 -0.02664,2.0211 -0.399605,0.38831 -0.988438,0.509 -1.50859,0.30923 l -0.02424,0.0236 c 0.185708,0.52511 0.04947,1.11027 -0.349081,1.49935 -0.5656538,0.55087 -1.4708201,0.53875 -2.0215219,-0.027 -0.5504714,-0.56573 -0.5381645,-1.47056 0.027489,-2.0211 0.069359,-0.067 0.1453114,-0.12684 0.2267131,-0.17855 l -4.9296583,-5.06346 c -0.054193,0.0797 -0.1163113,0.15376 -0.1854065,0.22098 -0.565485,0.55071 -1.470325,0.53879 -2.021101,-0.0267 -0.55087196,-0.56565 -0.53875196,-1.47081 0.02707,-2.02151 0.41007,-0.39913 1.018663,-0.51522 1.546855,-0.29506 -0.205703,-0.53328 -0.07392,-1.13783 0.335059,-1.53713 z"
       id="rect818"
       inkscape:connector-curvature="0"
       sodipodi:nodetypes="cccccccccccccccccccc" />
  </g>
</svg>
