<svg id="Layer_1" data-name="Layer 1" xmlns="http://www.w3.org/2000/svg" xmlns:xlink="http://www.w3.org/1999/xlink" viewBox="0 0 200 200"><defs><style>.cls-1{fill:#fff;}.cls-2{fill:#e6e6e5;}.cls-3{mask:url(#mask);}.cls-4{fill:#72c6ef;}.cls-5{mask:url(#mask-2-2);}.cls-6{fill:#d0c6ac;}.cls-7{mask:url(#mask-3);}.cls-8{fill:#fedbb5;}.cls-9{mask:url(#mask-4-2);}.cls-10,.cls-17,.cls-18{fill:#010101;}.cls-10{fill-opacity:0.1;}.cls-11{fill:#b7c1db;}.cls-12{mask:url(#mask-5);}.cls-13{fill:#3d505d;}.cls-14{mask:url(#mask-6-3);}.cls-15{fill:#f4f4f4;}.cls-16{mask:url(#mask-7);}.cls-17{fill-opacity:0.16;}.cls-18{fill-opacity:0.6;}.cls-19{mask:url(#mask-8);}.cls-20{fill:#331d10;}.cls-21{mask:url(#mask-9);}.cls-22{fill:#b58143;}.cls-23{fill:#2f3357;}.cls-24{mask:url(#mask-10);}</style><mask id="mask" x="12.84" y="20.01" width="178.07" height="178.07" maskUnits="userSpaceOnUse"><g id="mask-2"><circle id="path-1" class="cls-1" cx="101.88" cy="109.05" r="89.04"/></g></mask><mask id="mask-2-2" x="3.94" y="-9.67" width="195.88" height="207.75" maskUnits="userSpaceOnUse"><g id="mask-4"><path id="path-3" class="cls-1" d="M12.84,109.05a89,89,0,1,0,178.07,0h8.91V-9.67H3.94V109.05Z"/></g></mask><mask id="mask-3" x="3.94" y="17.04" width="195.88" height="181.04" maskUnits="userSpaceOnUse"><g id="mask-6"><path id="path-5" class="cls-1" d="M119.69,124.34V138h3a53.42,53.42,0,0,1,53.43,53.42v6.68H27.68v-6.68A53.42,53.42,0,0,1,81.1,138h3V124.34A41.58,41.58,0,0,1,60.55,91.15a8.9,8.9,0,0,1-7.64-8.81V72a8.91,8.91,0,0,1,7.42-8.78V58.59h0A41.55,41.55,0,0,1,101.88,17h0a41.55,41.55,0,0,1,41.55,41.55v4.58A8.91,8.91,0,0,1,150.85,72V82.34a8.9,8.9,0,0,1-7.65,8.81A41.55,41.55,0,0,1,119.69,124.34Z"/></g></mask><mask id="mask-4-2" x="27.68" y="17.04" width="148.39" height="181.04" maskUnits="userSpaceOnUse"><g id="mask-6-2" data-name="mask-6"><path id="path-5-2" data-name="path-5" class="cls-1" d="M119.69,124.34V138h3a53.42,53.42,0,0,1,53.43,53.42v6.68H27.68v-6.68A53.42,53.42,0,0,1,81.1,138h3V124.34A41.58,41.58,0,0,1,60.55,91.15a8.9,8.9,0,0,1-7.64-8.81V72a8.91,8.91,0,0,1,7.42-8.78V58.59h0A41.55,41.55,0,0,1,101.88,17h0a41.55,41.55,0,0,1,41.55,41.55v4.58A8.91,8.91,0,0,1,150.85,72V82.34a8.9,8.9,0,0,1-7.65,8.81A41.55,41.55,0,0,1,119.69,124.34Z"/></g></mask><mask id="mask-5" x="3.94" y="116.47" width="195.88" height="81.62" maskUnits="userSpaceOnUse"><g id="react-mask-2048"><path id="react-path-2047" class="cls-1" d="M84.07,126.17c-13.29,1.48-23.53,5.55-23.74,16a53.46,53.46,0,0,0-32.65,49.24h0v6.68h148.4v-6.68a53.46,53.46,0,0,0-32.65-49.24c-.21-10.45-10.45-14.52-23.74-16v14h0A17.81,17.81,0,0,1,101.88,158h0a17.81,17.81,0,0,1-17.81-17.81Z"/></g></mask><mask id="mask-6-3" x="27.68" y="126.17" width="148.39" height="71.92" maskUnits="userSpaceOnUse"><g id="react-mask-2048-2" data-name="react-mask-2048"><path id="react-path-2047-2" data-name="react-path-2047" class="cls-1" d="M84.07,126.17c-13.29,1.48-23.53,5.55-23.74,16a53.46,53.46,0,0,0-32.65,49.24h0v6.68h148.4v-6.68a53.46,53.46,0,0,0-32.65-49.24c-.21-10.45-10.45-14.52-23.74-16v14h0A17.81,17.81,0,0,1,101.88,158h0a17.81,17.81,0,0,1-17.81-17.81Z"/></g></mask><mask id="mask-7" x="27.68" y="125.91" width="148.39" height="72.18" maskUnits="userSpaceOnUse"><g id="react-mask-2048-3" data-name="react-mask-2048"><path id="react-path-2047-3" data-name="react-path-2047" class="cls-1" d="M84.07,126.17c-13.29,1.48-23.53,5.55-23.74,16a53.46,53.46,0,0,0-32.65,49.24h0v6.68h148.4v-6.68a53.46,53.46,0,0,0-32.65-49.24c-.21-10.45-10.45-14.52-23.74-16v14h0A17.81,17.81,0,0,1,101.88,158h0a17.81,17.81,0,0,1-17.81-17.81Z"/></g></mask><mask id="mask-8" x="3.94" y="-9.67" width="195.88" height="207.75" maskUnits="userSpaceOnUse"><g id="react-mask-4128"><rect id="react-path-4129" class="cls-1" x="3.94" y="-9.67" width="195.88" height="207.75"/></g></mask><mask id="mask-9" x="12.84" y="43.76" width="178.07" height="170.28" maskUnits="userSpaceOnUse"><g id="react-mask-4132"><path id="react-path-4133" class="cls-1" d="M114.81,116.59a6.76,6.76,0,0,1-6.36,1.94c-.44-.1-2.2-3.37-6.57-3.37s-6.14,3.27-6.57,3.37A6.76,6.76,0,0,1,89,116.59c-3.51-3.2-6.42-7.61-4.67-12.42.91-2.51,2.4-5.27,5.1-6.07,2.88-.85,6.93,0,9.84-.58a6.5,6.5,0,0,0,2.66-1.08,6.5,6.5,0,0,0,2.66,1.08c2.91.58,7-.27,9.84.58,2.7.8,4.19,3.56,5.1,6.07,1.75,4.81-1.16,9.22-4.67,12.42m28.68-53.54c-2.53,6.23-1.55,14-2,20.53-.38,5.32-1.5,13.29-6.22,16.72-2.42,1.76-6.81,4.71-10,3.89-2.17-.57-2.4-6.8-5.26-9.13a16.64,16.64,0,0,0-11.35-3.63c-1.76.08-5.32.06-6.79,1.41-1.47-1.35-5-1.33-6.79-1.41a16.67,16.67,0,0,0-11.36,3.63c-2.85,2.33-3.08,8.56-5.25,9.13-3.16.82-7.56-2.13-10-3.89-4.72-3.43-5.84-11.4-6.22-16.72-.47-6.54.51-14.3-2-20.53-1.23,0-.42,12-.42,12V90.12c0,11.34,7.11,28.32,22.82,34.8,3.84,1.59,12.54,4.16,19.21,4.16s15.37-2.33,19.21-3.91c15.71-6.49,22.79-23.71,22.82-35V75s.81-12-.42-12"/></g></mask><mask id="mask-10" x="3.94" y="-9.67" width="195.88" height="207.75" maskUnits="userSpaceOnUse"><g id="react-mask-4127"><path id="react-path-4131" class="cls-1" d="M141.82,45.19c1.3.73,2.34,8.08,2.39,10.9,0,1.73.06,8.35-1.78,7.77-.56-.17-1.41-3.67-1.53-5.72s-1.29-9-3.08-12.24c-.4-.73-1.57-2-1.07-2.64s1.24-.32,2,0A26.87,26.87,0,0,1,141.82,45.19Zm.6-2.21c-.56.71-4.34-1.29-5.91-2.16-13.24-7.32-15.81-9.64-36.68-9.34S64.68,41.56,63.88,42.56c-.56.69-1.28,2.55-1.86,7.72s.16,14.46-2,14.45c-1.81,0-2.2-17.65-1.42-24.65.12-1.07.58-3,.25-4s-1.72-.85-1.5-2.25c.26-1.6,1.88-.81,2.58-1.57,1.33-1.45-.72-1.8-1.06-3.06-.51-1.89,1-2.38,2.27-3s1.27-.08,2.46-1.37c-1.58-1.16-2.16-2.74,0-3.59.92-.36,3.31.12,4-.42.19-.14.26-.95.38-1.12,1.15-1.64.87-2.83.75-4.68-.1-1.52-.08-2.9,1.73-3.05,1.21-.11,2.19.88,3.27,1.17s.75.56,1.69-.09C77.14,12,76,9.77,77.33,8.45c1.8-1.82,3,.84,4.42,1,3.13.44,2.13-2.74,4-3.91C88,4.19,88.16,7.25,89.55,7.36c1.2.09,3.36-2.22,4.4-2.65,3.11-1.28,4.64,2.32,7.6,1.86,2.14-.33,2.72-.61,4.65.61s2.33.34,4.46.33c1.5,0,2.42,1.24,3.67,1.37.63.07,1.23-.59,1.9-.55,2.41.15,2.56,3.26,4.47,4.11,1.74.78,3.79-.32,5.52-.52,4.22-.49,1.33,3.45,1.45,5.8,1.66.39,3.34-1.16,5-.87,2.6.45,1.62,3.14,1,4.95,1.8,0,6.5-2,7.67.53.6,1.32-.8,3.08-.78,4.42,0,1.88,1.42,3.44,1.91,5.23C143.13,34.38,144.08,40.84,142.42,43Z"/></g></mask></defs><title>Artboard 1</title><g id="Avataaar"><g id="Avataaar_Circle" data-name="Avataaar/Circle"><g id="Circle"><g id="Circle-Background"><circle id="path-1-2" data-name="path-1" class="cls-2" cx="101.88" cy="109.05" r="89.04"/></g><g class="cls-3"><g id="Color_Palette_Blue-01" data-name="Color/Palette/Blue-01"><rect id="_Color" data-name="Color" class="cls-4" x="12.84" y="20.01" width="178.07" height="178.07"/></g></g></g><g class="cls-5"><g id="Avataaar-2" data-name="Avataaar"><g id="Body"><path id="path-5-3" data-name="path-5" class="cls-6" d="M119.69,124.34V138h3a53.42,53.42,0,0,1,53.43,53.42v6.68H27.68v-6.68A53.42,53.42,0,0,1,81.1,138h3V124.34A41.58,41.58,0,0,1,60.55,91.15a8.9,8.9,0,0,1-7.64-8.81V72a8.91,8.91,0,0,1,7.42-8.78V58.59h0A41.55,41.55,0,0,1,101.88,17h0a41.55,41.55,0,0,1,41.55,41.55v4.58A8.91,8.91,0,0,1,150.85,72V82.34a8.9,8.9,0,0,1-7.65,8.81A41.55,41.55,0,0,1,119.69,124.34Z"/><g class="cls-7"><g id="Skin_-03-Brown" data-name="Skin/-03-Brown"><g id="Color"><rect class="cls-8" x="3.94" y="17.04" width="195.88" height="181.04"/></g></g></g><g class="cls-9"><path id="Neck-Shadow" class="cls-10" d="M143.43,75.66V92.73a41.55,41.55,0,0,1-83.1,0V86.79a41.55,41.55,0,0,0,83.1,0Z"/></g></g><g id="Clothing_Hoodie" data-name="Clothing/Hoodie"><g id="Hoodie"><path id="react-path-2047-4" data-name="react-path-2047" class="cls-11" d="M84.07,126.17c-13.29,1.48-23.53,5.55-23.74,16a53.46,53.46,0,0,0-32.65,49.24h0v6.68h148.4v-6.68a53.46,53.46,0,0,0-32.65-49.24c-.21-10.45-10.45-14.52-23.74-16v14h0A17.81,17.81,0,0,1,101.88,158h0a17.81,17.81,0,0,1-17.81-17.81Z"/></g><g class="cls-12"><g id="Color_Palette_Gray-01" data-name="Color/Palette/Gray-01"><rect id="_Color-2" data-name="Color" class="cls-13" x="3.94" y="116.47" width="195.88" height="81.62"/></g></g><g class="cls-14"><path id="Straps" class="cls-15" d="M79.62,162.28v35.81H74.43V159.61A46,46,0,0,0,79.62,162.28Zm49.71-2.67v29.94a2.6,2.6,0,1,1-5.19,0V162.28A46,46,0,0,0,129.33,159.61Z"/></g><g class="cls-16"><path id="Shadow" class="cls-17" d="M71.43,125.91c-11.17,2.11-18.89,6.32-18.89,14.53,0,14.63,24.51,26.48,49.34,26.48s49.34-11.85,49.34-26.48c0-8.21-7.72-12.42-18.89-14.53,6.74,2.49,11.1,6.66,11.1,13.62,0,15.13-20.64,27.39-41.55,27.39s-41.55-12.26-41.55-27.39C60.33,132.57,64.69,128.4,71.43,125.91Z"/></g></g><g id="Face"><g id="Mouth_Twinkle" data-name="Mouth/Twinkle"><path id="Mouth" class="cls-18" d="M91.49,101.63c0,4,4.57,6.68,10.39,6.68s10.39-2.7,10.39-6.68a1.51,1.51,0,0,0-1.49-1.48,1.45,1.45,0,0,0-1.48,1.48c-.92,2.18-3.2,3.5-7.42,3.71-4.22-.21-6.5-1.53-7.42-3.71A1.47,1.47,0,0,0,93,100.15,1.51,1.51,0,0,0,91.49,101.63Z"/></g><g id="Nose_Default" data-name="Nose/Default"><path id="Nose" class="cls-17" d="M93,86.79c0,3.28,4,5.94,8.91,5.94h0c4.92,0,8.9-2.66,8.9-5.94"/></g><g id="Eyes_Default-_" data-name="Eyes/Default-"><circle id="Eye" class="cls-18" cx="82.59" cy="73.43" r="4.45"/><circle id="Eye-2" data-name="Eye" class="cls-18" cx="121.17" cy="73.43" r="4.45"/></g><g id="Eyebrow_Outline_Default" data-name="Eyebrow/Outline/Default"><g id="I-Browse"><path id="Eyebrow" class="cls-18" d="M71.93,63.91c2.9-4.09,10.86-6.38,17.72-4.7a1.48,1.48,0,1,0,.71-2.88c-8-2-17.19.7-20.85,5.86a1.48,1.48,0,0,0,.35,2.07A1.5,1.5,0,0,0,71.93,63.91Z"/><path id="Eyebrow-2" data-name="Eyebrow" class="cls-18" d="M131.83,63.91c-2.9-4.09-10.87-6.38-17.73-4.7a1.48,1.48,0,0,1-.7-2.88c8-2,17.18.7,20.85,5.86a1.48,1.48,0,0,1-.35,2.07A1.5,1.5,0,0,1,131.83,63.91Z"/></g></g></g><g id="Top"><g class="cls-19"><g id="Top_Short-Hair_Dreads-01" data-name="Top/Short-Hair/Dreads-01"><g id="Facial-Hair_Beard-Light" data-name="Facial-Hair/Beard-Light"><g id="Lite-Beard"><path id="react-path-4133-2" data-name="react-path-4133" class="cls-20" d="M114.81,116.59a6.76,6.76,0,0,1-6.36,1.94c-.44-.1-2.2-3.37-6.57-3.37s-6.14,3.27-6.57,3.37A6.76,6.76,0,0,1,89,116.59c-3.51-3.2-6.42-7.61-4.67-12.42.91-2.51,2.4-5.27,5.1-6.07,2.88-.85,6.93,0,9.84-.58a6.5,6.5,0,0,0,2.66-1.08,6.5,6.5,0,0,0,2.66,1.08c2.91.58,7-.27,9.84.58,2.7.8,4.19,3.56,5.1,6.07,1.75,4.81-1.16,9.22-4.67,12.42m28.68-53.54c-2.53,6.23-1.55,14-2,20.53-.38,5.32-1.5,13.29-6.22,16.72-2.42,1.76-6.81,4.71-10,3.89-2.17-.57-2.4-6.8-5.26-9.13a16.64,16.64,0,0,0-11.35-3.63c-1.76.08-5.32.06-6.79,1.41-1.47-1.35-5-1.33-6.79-1.41a16.67,16.67,0,0,0-11.36,3.63c-2.85,2.33-3.08,8.56-5.25,9.13-3.16.82-7.56-2.13-10-3.89-4.72-3.43-5.84-11.4-6.22-16.72-.47-6.54.51-14.3-2-20.53-1.23,0-.42,12-.42,12V90.12c0,11.34,7.11,28.32,22.82,34.8,3.84,1.59,12.54,4.16,19.21,4.16s15.37-2.33,19.21-3.91c15.71-6.49,22.79-23.71,22.82-35V75s.81-12-.42-12"/></g><g class="cls-21"><g id="Color_Hair_Brown" data-name="Color/Hair/Brown"><g id="Color-2" data-name="Color"><rect class="cls-22" x="12.84" y="43.76" width="178.07" height="170.28"/></g></g></g></g><g id="Hair"><g id="Dreads-With-Cut"><path id="react-path-4131-2" data-name="react-path-4131" class="cls-23" d="M141.82,45.19c1.3.73,2.34,8.08,2.39,10.9,0,1.73.06,8.35-1.78,7.77-.56-.17-1.41-3.67-1.53-5.72s-1.29-9-3.08-12.24c-.4-.73-1.57-2-1.07-2.64s1.24-.32,2,0A26.87,26.87,0,0,1,141.82,45.19Zm.6-2.21c-.56.71-4.34-1.29-5.91-2.16-13.24-7.32-15.81-9.64-36.68-9.34S64.68,41.56,63.88,42.56c-.56.69-1.28,2.55-1.86,7.72s.16,14.46-2,14.45c-1.81,0-2.2-17.65-1.42-24.65.12-1.07.58-3,.25-4s-1.72-.85-1.5-2.25c.26-1.6,1.88-.81,2.58-1.57,1.33-1.45-.72-1.8-1.06-3.06-.51-1.89,1-2.38,2.27-3s1.27-.08,2.46-1.37c-1.58-1.16-2.16-2.74,0-3.59.92-.36,3.31.12,4-.42.19-.14.26-.95.38-1.12,1.15-1.64.87-2.83.75-4.68-.1-1.52-.08-2.9,1.73-3.05,1.21-.11,2.19.88,3.27,1.17s.75.56,1.69-.09C77.14,12,76,9.77,77.33,8.45c1.8-1.82,3,.84,4.42,1,3.13.44,2.13-2.74,4-3.91C88,4.19,88.16,7.25,89.55,7.36c1.2.09,3.36-2.22,4.4-2.65,3.11-1.28,4.64,2.32,7.6,1.86,2.14-.33,2.72-.61,4.65.61s2.33.34,4.46.33c1.5,0,2.42,1.24,3.67,1.37.63.07,1.23-.59,1.9-.55,2.41.15,2.56,3.26,4.47,4.11,1.74.78,3.79-.32,5.52-.52,4.22-.49,1.33,3.45,1.45,5.8,1.66.39,3.34-1.16,5-.87,2.6.45,1.62,3.14,1,4.95,1.8,0,6.5-2,7.67.53.6,1.32-.8,3.08-.78,4.42,0,1.88,1.42,3.44,1.91,5.23C143.13,34.38,144.08,40.84,142.42,43Z"/></g><g class="cls-24"><g id="Skin_-03-Brown-2" data-name="Skin/-03-Brown"><g id="Color-3" data-name="Color"><rect class="cls-22" x="3.94" y="-9.67" width="195.88" height="207.75"/></g></g></g></g></g></g></g></g></g></g></g></svg>