<svg id="Layer_1" data-name="Layer 1" xmlns="http://www.w3.org/2000/svg" xmlns:xlink="http://www.w3.org/1999/xlink" viewBox="0 0 240 120"><defs><style>.cls-1{fill:none;}.cls-2{clip-path:url(#clip-path);}.cls-3{fill:#a3a3a3;}.cls-4,.cls-6{fill:#b2b2b2;}.cls-5,.cls-6{opacity:0.6;}</style><clipPath id="clip-path"><rect class="cls-1" width="240" height="120"/></clipPath></defs><title>Artboard 2</title><g class="cls-2"><rect class="cls-1" width="240" height="120"/><polygon class="cls-3" points="131.57 48.98 131.57 64.69 131.59 64.71 138.17 71.29 138.17 136.07 138.29 136.07 138.29 71.24 138.28 71.22 131.69 64.64 131.69 48.98 131.57 48.98"/><circle class="cls-3" cx="131.63" cy="48.98" r="0.7"/><path class="cls-3" d="M156,56.11a.88.88,0,1,1-.88.87A.87.87,0,0,1,156,56.11Zm0,.36a.52.52,0,1,0,.51.51A.51.51,0,0,0,156,56.47Z"/><polygon class="cls-3" points="148.94 82.24 148.94 130.51 149.06 130.51 149.06 82.29 156.06 75.3 156.06 57.68 155.94 57.68 155.94 75.25 148.94 82.24"/><circle class="cls-3" cx="143.98" cy="60.99" r="0.7"/><polygon class="cls-3" points="139.04 89.37 139.04 125.78 139.16 125.78 139.16 89.42 144.04 84.55 144.04 60.99 143.91 60.99 143.91 84.5 139.04 89.37"/><circle class="cls-3" cx="182.19" cy="89.46" r="0.7"/><polygon class="cls-3" points="177.26 117.84 177.26 154.25 177.38 154.25 177.38 117.89 182.25 113.02 182.25 89.46 182.13 89.46 182.13 112.97 177.26 117.84"/><polygon class="cls-3" points="133.57 102.7 133.57 137 133.69 137 133.69 102.82 141.2 102.82 141.2 80.2 141.19 80.19 136.66 75.66 136.66 63.88 136.54 63.88 136.54 75.71 136.56 75.73 141.08 80.25 141.08 102.7 133.57 102.7"/><path class="cls-3" d="M136.6,62.3a.88.88,0,1,1-.88.88A.88.88,0,0,1,136.6,62.3Zm0,.37a.51.51,0,0,0-.51.51.52.52,0,1,0,1,0A.51.51,0,0,0,136.6,62.67Z"/><path class="cls-3" d="M128.41,62.3a.88.88,0,1,1-.88.88A.89.89,0,0,1,128.41,62.3Zm0,.37a.51.51,0,0,0-.51.51.51.51,0,1,0,1,0A.51.51,0,0,0,128.41,62.67Z"/><polygon class="cls-3" points="128.35 63.88 128.35 78.86 128.37 78.88 135.74 86.25 135.74 131.15 135.86 131.15 135.86 86.2 135.84 86.18 128.47 78.81 128.47 63.88 128.35 63.88"/><circle class="cls-3" cx="150.58" cy="76.17" r="0.7"/><polygon class="cls-3" points="143.09 96.03 143.09 135.16 143.21 135.16 143.21 96.08 150.64 88.65 150.64 76.17 150.52 76.17 150.52 88.6 143.09 96.03"/><polygon class="cls-3" points="173.86 102.91 173.86 130.51 173.96 130.51 173.96 103.02 180.07 103.02 180.07 83.34 180.06 83.33 176.37 79.39 176.37 69.14 176.28 69.14 176.28 79.43 176.29 79.45 179.97 83.38 179.97 102.91 173.86 102.91"/><circle class="cls-3" cx="176.33" cy="69.14" r="0.7"/><polygon class="cls-3" points="178.32 77.09 178.32 92.81 178.3 92.82 171.72 99.41 171.72 144.59 171.6 144.59 171.6 99.36 171.61 99.34 178.2 92.75 178.2 77.09 178.32 77.09"/><circle class="cls-3" cx="178.26" cy="77.09" r="0.7"/><path class="cls-3" d="M130,84a.88.88,0,1,1-.88.88A.87.87,0,0,1,130,84Zm0,.36a.52.52,0,0,0-.52.52.52.52,0,0,0,1,0A.52.52,0,0,0,130,84.39Z"/><polygon class="cls-3" points="126.96 124.43 126.96 139.13 127.08 139.13 127.08 124.55 134.59 124.55 134.59 101.93 134.57 101.91 130.04 97.39 130.04 85.6 129.92 85.6 129.92 97.44 129.94 97.46 134.47 101.98 134.47 124.43 126.96 124.43"/><polygon class="cls-3" points="166.88 98.76 166.88 135.25 167 135.25 167 98.88 174.51 98.88 174.51 76.26 174.49 76.25 169.97 71.72 169.97 59.94 169.85 59.94 169.85 71.77 169.87 71.79 174.39 76.31 174.39 98.76 166.88 98.76"/><path class="cls-3" d="M169.82,58.37a.87.87,0,1,1,.18,1.74.87.87,0,0,1-.18-1.74Zm0,.36a.51.51,0,1,0,.56.46A.51.51,0,0,0,169.86,58.73Z"/><circle class="cls-3" cx="170.01" cy="76.14" r="0.7"/><polygon class="cls-3" points="174.94 104.52 174.94 132.34 174.82 132.34 174.82 104.57 169.95 99.69 169.95 76.14 170.07 76.14 170.07 99.64 174.94 104.52"/><polygon class="cls-3" points="173.19 88.08 173.19 130.09 173.07 130.09 173.07 88.14 166.07 81.14 166.07 63.52 166.19 63.52 166.19 81.09 173.19 88.08"/><circle class="cls-3" cx="166.13" cy="63.52" r="0.7"/><polygon class="cls-3" points="176.26 92.14 176.26 132.04 176.14 132.04 176.14 92.26 168.63 92.26 168.63 69.65 168.64 69.63 173.17 65.11 173.17 53.32 173.29 53.32 173.29 65.16 173.27 65.17 168.75 69.7 168.75 92.14 176.26 92.14"/><path class="cls-3" d="M174.1,52.62a.88.88,0,1,1-.87-.87A.87.87,0,0,1,174.1,52.62Zm-1.39,0a.52.52,0,1,0,.52-.51A.52.52,0,0,0,172.71,52.62Z"/><path class="cls-3" d="M185.72,75.15a.88.88,0,1,1-.88-.88A.88.88,0,0,1,185.72,75.15Zm-1.4,0a.52.52,0,1,0,.52-.51A.52.52,0,0,0,184.32,75.15Z"/><polygon class="cls-3" points="184.9 75.85 184.9 90.84 184.88 90.85 177.51 98.22 177.51 143.98 177.39 143.98 177.39 98.17 177.41 98.16 184.78 90.79 184.78 75.85 184.9 75.85"/><path class="cls-3" d="M162.67,84.39a.7.7,0,1,1,.7-.69A.69.69,0,0,1,162.67,84.39Z"/><polygon class="cls-3" points="170.16 103.56 170.16 128.95 170.04 128.95 170.04 103.61 162.61 96.18 162.61 83.7 162.73 83.7 162.73 96.13 170.16 103.56"/><circle class="cls-3" cx="162.19" cy="66.03" r="0.66"/><polygon class="cls-3" points="162.25 66.03 162.25 80.94 162.24 80.95 155.99 87.2 155.99 130.06 155.87 130.06 155.87 87.15 155.89 87.13 162.14 80.89 162.14 66.03 162.25 66.03"/><path class="cls-3" d="M79.16,74.33a.66.66,0,1,1,.66-.66A.66.66,0,0,1,79.16,74.33Z"/><polygon class="cls-3" points="79.22 73.67 79.22 88.58 79.2 88.59 72.96 94.84 72.96 137.7 72.84 137.7 72.84 94.79 72.86 94.78 79.11 88.53 79.11 73.67 79.22 73.67"/><circle class="cls-3" cx="145.43" cy="69.45" r="0.7"/><polygon class="cls-3" points="152.13 92.75 152.13 132.54 152.01 132.54 152.01 92.8 145.38 86.16 145.38 69.45 145.49 69.45 145.49 86.12 152.13 92.75"/><circle class="cls-3" cx="153.95" cy="41.88" r="0.66"/><polygon class="cls-3" points="158.69 68.66 158.69 127.11 158.58 127.11 158.58 68.71 153.95 64.08 153.95 41.74 154.07 41.74 154.07 64.04 158.69 68.66"/><path class="cls-3" d="M153.69,82.31a.78.78,0,1,1-.78-.78A.78.78,0,0,1,153.69,82.31Zm-1.24,0a.46.46,0,0,0,.46.45.45.45,0,0,0,.45-.45.46.46,0,0,0-.45-.46A.47.47,0,0,0,152.45,82.31Z"/><polygon class="cls-3" points="152.96 82.93 152.96 96.24 152.94 96.25 146.4 102.8 146.4 125.25 146.29 125.25 146.29 102.75 146.31 102.73 152.85 96.19 152.85 82.93 152.96 82.93"/><path class="cls-3" d="M130,103a.78.78,0,1,1-.78-.78A.78.78,0,0,1,130,103Zm-1.23,0a.46.46,0,0,0,.91,0,.46.46,0,1,0-.91,0Z"/><polygon class="cls-3" points="129.25 103.63 129.25 116.94 129.23 116.95 122.69 123.5 122.69 145.95 122.58 145.95 122.58 123.45 122.6 123.43 129.14 116.89 129.14 103.63 129.25 103.63"/><path class="cls-3" d="M164.42,110.06a.78.78,0,1,1-.78-.78A.78.78,0,0,1,164.42,110.06Zm-1.24,0a.46.46,0,0,0,.46.46.46.46,0,0,0,0-.91A.46.46,0,0,0,163.18,110.06Z"/><polygon class="cls-3" points="163.69 110.68 163.69 123.99 163.68 124.01 157.13 130.55 157.13 153.01 157.02 153.01 157.02 130.51 157.04 130.49 163.58 123.95 163.58 110.68 163.69 110.68"/><path class="cls-3" d="M168.11,76.5a.78.78,0,1,1-.78-.78A.78.78,0,0,1,168.11,76.5Zm-1.24,0a.46.46,0,0,0,.46.45.45.45,0,0,0,.45-.45.46.46,0,0,0-.45-.46A.47.47,0,0,0,166.87,76.5Z"/><polygon class="cls-3" points="167.38 77.12 167.38 90.43 167.37 90.44 160.82 96.98 160.82 137.84 160.71 137.84 160.71 96.94 160.73 96.92 167.27 90.38 167.27 77.12 167.38 77.12"/><path class="cls-3" d="M161,57.54a.84.84,0,1,1-.84.83A.84.84,0,0,1,161,57.54Zm0,.35a.49.49,0,1,0,.48.48A.49.49,0,0,0,161,57.89Z"/><polygon class="cls-3" points="154.31 82.34 154.31 129.49 154.43 129.49 154.43 82.39 161.06 75.75 161.06 59.03 160.95 59.03 160.95 75.7 154.31 82.34"/><path class="cls-3" d="M172.18,71.65a.66.66,0,0,0,.66-.65.66.66,0,1,0-1.32,0A.65.65,0,0,0,172.18,71.65Z"/><polygon class="cls-3" points="167.49 97.92 167.49 132.01 167.61 132.01 167.61 97.97 172.23 93.34 172.23 71 172.12 71 172.12 93.29 167.49 97.92"/><path class="cls-3" d="M161.55,88.92a.83.83,0,1,1,0,1.66.83.83,0,1,1,0-1.66Zm0,.34a.49.49,0,0,0,0,1,.49.49,0,0,0,0-1Z"/><polygon class="cls-3" points="161.5 90.39 161.5 102.29 161.51 102.31 168.5 109.3 168.5 133.29 168.62 133.29 168.62 109.25 168.6 109.23 161.61 102.24 161.61 90.39 161.5 90.39"/><path class="cls-3" d="M164.67,79.52a.66.66,0,1,0-.66-.66A.67.67,0,0,0,164.67,79.52Z"/><polygon class="cls-3" points="157.56 97.7 157.56 136.67 157.68 136.67 157.68 97.75 164.73 90.7 164.73 78.86 164.61 78.86 164.61 90.65 157.56 97.7"/><polygon class="cls-3" points="184.29 45.32 184.29 61.03 184.31 61.05 190.89 67.63 190.89 132.41 191.01 132.41 191.01 67.58 191 67.56 184.41 60.98 184.41 45.32 184.29 45.32"/><circle class="cls-3" cx="184.35" cy="45.32" r="0.7"/><polygon class="cls-3" points="225.96 56.02 225.96 71.74 225.98 71.75 232.56 78.34 232.56 143.12 232.68 143.12 232.68 78.29 232.66 78.27 226.08 71.69 226.08 56.02 225.96 56.02"/><path class="cls-3" d="M226,56.72a.7.7,0,1,0-.7-.7A.7.7,0,0,0,226,56.72Z"/><path class="cls-3" d="M201.9,56.11A.88.88,0,1,1,201,57,.87.87,0,0,1,201.9,56.11Zm0,.36a.52.52,0,1,0,.52.51A.51.51,0,0,0,201.9,56.47Z"/><polygon class="cls-3" points="194.85 82.24 194.85 130.51 194.97 130.51 194.97 82.29 201.96 75.3 201.96 57.68 201.84 57.68 201.84 75.25 194.85 82.24"/><path class="cls-3" d="M198,71a.7.7,0,1,0-.7-.69A.69.69,0,0,0,198,71Z"/><polygon class="cls-3" points="193.09 98.68 193.09 135.08 193.21 135.08 193.21 98.73 198.09 93.85 198.09 70.3 197.97 70.3 197.97 93.8 193.09 98.68"/><circle class="cls-3" cx="238.85" cy="93.38" r="0.7"/><polygon class="cls-3" points="233.91 121.76 233.91 158.16 234.03 158.16 234.03 121.81 238.91 116.93 238.91 93.38 238.79 93.38 238.79 116.88 233.91 121.76"/><polygon class="cls-3" points="186.29 102.7 186.29 137 186.41 137 186.41 102.82 193.92 102.82 193.92 80.2 193.9 80.19 189.38 75.66 189.38 63.88 189.26 63.88 189.26 75.71 189.28 75.73 193.8 80.25 193.8 102.7 186.29 102.7"/><path class="cls-3" d="M189.32,62.3a.88.88,0,1,1-.88.88A.89.89,0,0,1,189.32,62.3Zm0,.37a.51.51,0,0,0-.51.51.51.51,0,1,0,1,0A.51.51,0,0,0,189.32,62.67Z"/><path class="cls-3" d="M181.87,62.3a.88.88,0,1,1-.87.88A.88.88,0,0,1,181.87,62.3Zm0,.37a.51.51,0,0,0-.51.51.52.52,0,1,0,1,0A.51.51,0,0,0,181.87,62.67Z"/><polygon class="cls-3" points="181.81 63.88 181.81 78.86 181.83 78.88 189.2 86.25 189.2 131.15 189.32 131.15 189.32 86.2 189.3 86.18 181.93 78.81 181.93 63.88 181.81 63.88"/><circle class="cls-3" cx="203.03" cy="93.04" r="0.7"/><polygon class="cls-3" points="195.54 112.9 195.54 152.03 195.66 152.03 195.66 112.95 203.09 105.52 203.09 93.04 202.97 93.04 202.97 105.47 195.54 112.9"/><polygon class="cls-3" points="231.43 106.82 231.43 134.42 231.52 134.42 231.52 106.93 237.64 106.93 237.64 87.25 237.63 87.23 233.94 83.3 233.94 73.05 233.84 73.05 233.84 83.34 233.86 83.36 237.54 87.3 237.54 106.82 231.43 106.82"/><path class="cls-3" d="M233.9,73.74a.7.7,0,1,1,.69-.69A.69.69,0,0,1,233.9,73.74Z"/><polygon class="cls-3" points="231.4 68.48 231.4 84.19 231.38 84.21 224.8 90.8 224.8 135.97 224.68 135.97 224.68 90.75 224.69 90.73 231.28 84.14 231.28 68.48 231.4 68.48"/><circle class="cls-3" cx="231.34" cy="68.48" r="0.7"/><path class="cls-3" d="M183.65,84a.88.88,0,0,1,0,1.76.88.88,0,1,1,0-1.76Zm0,.36a.52.52,0,0,0-.51.52.52.52,0,0,0,1,0A.52.52,0,0,0,183.65,84.39Z"/><polygon class="cls-3" points="180.62 124.43 180.62 139.13 180.74 139.13 180.74 124.55 188.25 124.55 188.25 101.93 188.24 101.91 183.71 97.39 183.71 85.6 183.59 85.6 183.59 97.44 183.61 97.46 188.13 101.98 188.13 124.43 180.62 124.43"/><polygon class="cls-3" points="216.29 98.76 216.29 135.25 216.41 135.25 216.41 98.88 223.92 98.88 223.92 76.26 223.9 76.25 219.38 71.72 219.38 59.94 219.25 59.94 219.25 71.77 219.27 71.79 223.8 76.31 223.8 98.76 216.29 98.76"/><path class="cls-3" d="M219.23,58.37a.88.88,0,0,1,1,.78.86.86,0,0,1-.79,1,.88.88,0,0,1-1-.78A.89.89,0,0,1,219.23,58.37Zm0,.36a.51.51,0,0,0-.46.56.51.51,0,0,0,.56.46.51.51,0,1,0-.1-1Z"/><circle class="cls-3" cx="225.82" cy="76.14" r="0.7"/><polygon class="cls-3" points="230.76 104.52 230.76 132.34 230.64 132.34 230.64 104.57 225.76 99.69 225.76 76.14 225.88 76.14 225.88 99.64 230.76 104.52"/><polygon class="cls-3" points="229 88.08 229 130.09 228.88 130.09 228.88 88.14 221.89 81.14 221.89 63.52 222.01 63.52 222.01 81.09 229 88.08"/><circle class="cls-3" cx="221.94" cy="63.52" r="0.7"/><polygon class="cls-3" points="235.67 92.14 235.67 132.04 235.55 132.04 235.55 92.26 228.04 92.26 228.04 69.65 228.06 69.63 232.59 65.11 232.59 53.32 232.71 53.32 232.71 65.16 232.69 65.17 228.16 69.7 228.16 92.14 235.67 92.14"/><path class="cls-3" d="M233.52,52.62a.88.88,0,1,1-.88-.87A.87.87,0,0,1,233.52,52.62Zm-1.39,0a.52.52,0,1,0,.51-.51A.51.51,0,0,0,232.13,52.62Z"/><path class="cls-3" d="M238.8,63.51a.88.88,0,1,1-.88-.88A.89.89,0,0,1,238.8,63.51Zm-1.4,0a.52.52,0,0,0,.52.51.51.51,0,0,0,.51-.51.52.52,0,0,0-.51-.52A.53.53,0,0,0,237.4,63.51Z"/><polygon class="cls-3" points="237.98 64.2 237.98 79.19 237.96 79.21 230.59 86.58 230.59 132.34 230.47 132.34 230.47 86.53 230.49 86.51 237.86 79.14 237.86 64.2 237.98 64.2"/><path class="cls-3" d="M216.47,84.39a.7.7,0,1,1,.69-.69A.69.69,0,0,1,216.47,84.39Z"/><polygon class="cls-3" points="223.96 103.56 223.96 128.95 223.84 128.95 223.84 103.61 216.41 96.18 216.41 83.7 216.53 83.7 216.53 96.13 223.96 103.56"/><circle class="cls-3" cx="217.33" cy="66.03" r="0.66"/><polygon class="cls-3" points="217.39 66.03 217.39 80.94 217.37 80.95 211.13 87.2 211.13 130.06 211.01 130.06 211.01 87.15 211.03 87.13 217.28 80.89 217.28 66.03 217.39 66.03"/><path class="cls-3" d="M194.62,64.05a.7.7,0,1,0-.7-.7A.69.69,0,0,0,194.62,64.05Z"/><polygon class="cls-3" points="201.31 86.66 201.31 126.45 201.2 126.45 201.2 86.7 194.56 80.07 194.56 63.35 194.68 63.35 194.68 80.02 201.31 86.66"/><path class="cls-3" d="M203.73,51a.66.66,0,1,1,0-1.32.66.66,0,0,1,0,1.32Z"/><polygon class="cls-3" points="208.48 77.07 208.48 135.52 208.36 135.52 208.36 77.12 203.74 72.49 203.74 50.15 203.85 50.15 203.85 72.44 208.48 77.07"/><path class="cls-3" d="M207,82.31a.78.78,0,1,1-.78-.78A.78.78,0,0,1,207,82.31Zm-1.24,0a.46.46,0,0,0,.46.45.45.45,0,0,0,.45-.45.46.46,0,0,0-.45-.46A.47.47,0,0,0,205.73,82.31Z"/><polygon class="cls-3" points="206.24 82.93 206.24 96.24 206.23 96.25 199.68 102.8 199.68 125.25 199.57 125.25 199.57 102.75 199.59 102.73 206.13 96.19 206.13 82.93 206.24 82.93"/><path class="cls-3" d="M185.86,101.42a.78.78,0,1,1-.78-.78A.78.78,0,0,1,185.86,101.42Zm-1.24,0a.46.46,0,0,0,.46.45.45.45,0,0,0,.45-.45.46.46,0,0,0-.45-.46A.47.47,0,0,0,184.62,101.42Z"/><polygon class="cls-3" points="185.13 102.03 185.13 115.34 185.12 115.36 178.57 121.91 178.57 144.36 178.46 144.36 178.46 121.86 178.48 121.84 185.02 115.3 185.02 102.03 185.13 102.03"/><path class="cls-3" d="M214.87,107.11a.78.78,0,1,1-.78-.78A.78.78,0,0,1,214.87,107.11Zm-1.24,0a.46.46,0,0,0,.46.45.46.46,0,0,0,0-.91A.46.46,0,0,0,213.63,107.11Z"/><polygon class="cls-3" points="214.14 107.72 214.14 121.03 214.13 121.05 207.58 127.59 207.58 150.05 207.47 150.05 207.47 127.55 207.49 127.53 214.03 120.99 214.03 107.72 214.14 107.72"/><path class="cls-3" d="M222.24,93.33a.78.78,0,1,1-.78-.78A.78.78,0,0,1,222.24,93.33Zm-1.24,0a.46.46,0,1,0,.46-.46A.46.46,0,0,0,221,93.33Z"/><polygon class="cls-3" points="221.51 93.94 221.51 107.25 221.5 107.27 214.95 113.81 214.95 136.27 214.84 136.27 214.84 113.77 214.86 113.75 221.41 107.21 221.41 93.94 221.51 93.94"/><path class="cls-3" d="M228.37,98.92a.78.78,0,0,1-.78.78.78.78,0,0,1,0-1.56A.78.78,0,0,1,228.37,98.92Zm-1.23,0a.46.46,0,1,0,.45-.46A.45.45,0,0,0,227.14,98.92Z"/><polygon class="cls-3" points="227.65 99.53 227.65 112.84 227.63 112.86 221.09 119.4 221.09 141.86 220.98 141.86 220.98 119.36 221 119.34 227.54 112.8 227.54 99.53 227.65 99.53"/><path class="cls-3" d="M213.66,76.5a.78.78,0,1,1-.78-.78A.78.78,0,0,1,213.66,76.5Zm-1.24,0a.46.46,0,0,0,.46.45.45.45,0,0,0,.45-.45.46.46,0,0,0-.45-.46A.47.47,0,0,0,212.42,76.5Z"/><polygon class="cls-3" points="212.93 77.12 212.93 90.43 212.91 90.44 206.37 96.98 206.37 137.84 206.26 137.84 206.26 96.94 206.28 96.92 212.82 90.38 212.82 77.12 212.93 77.12"/><path class="cls-3" d="M210.79,57.54a.84.84,0,1,1-.83.83A.83.83,0,0,1,210.79,57.54Zm0,.35a.49.49,0,1,0,.49.48A.49.49,0,0,0,210.79,57.89Z"/><polygon class="cls-3" points="204.1 82.34 204.1 129.49 204.21 129.49 204.21 82.39 210.85 75.75 210.85 59.03 210.74 59.03 210.74 75.7 204.1 82.34"/><path class="cls-3" d="M214.32,71.65A.66.66,0,0,0,215,71a.66.66,0,1,0-1.32,0A.65.65,0,0,0,214.32,71.65Z"/><polygon class="cls-3" points="209.63 97.92 209.63 132.01 209.75 132.01 209.75 97.97 214.37 93.34 214.37 71 214.26 71 214.26 93.29 209.63 97.92"/><path class="cls-3" d="M215.26,88.92a.83.83,0,1,1,0,1.66.83.83,0,1,1,0-1.66Zm0,.34a.49.49,0,0,0,0,1,.49.49,0,0,0,0-1Z"/><polygon class="cls-3" points="215.2 90.39 215.2 102.29 215.22 102.31 222.21 109.3 222.21 133.29 222.32 133.29 222.32 109.25 222.31 109.23 215.31 102.24 215.31 90.39 215.2 90.39"/><circle class="cls-3" cx="219.37" cy="78.86" r="0.66"/><polygon class="cls-3" points="212.26 97.7 212.26 136.67 212.38 136.67 212.38 97.75 219.42 90.7 219.42 78.86 219.31 78.86 219.31 90.65 212.26 97.7"/><polygon class="cls-3" points="5.23 48.98 5.23 64.69 5.24 64.71 11.83 71.29 11.83 136.07 11.95 136.07 11.95 71.24 11.93 71.22 5.35 64.64 5.35 48.98 5.23 48.98"/><circle class="cls-3" cx="5.29" cy="48.98" r="0.7"/><path class="cls-3" d="M29.65,56.11a.88.88,0,1,1-.88.87A.88.88,0,0,1,29.65,56.11Zm0,.36a.52.52,0,1,0,.51.51A.51.51,0,0,0,29.65,56.47Z"/><polygon class="cls-3" points="22.59 82.24 22.59 130.51 22.71 130.51 22.71 82.29 29.71 75.3 29.71 57.68 29.59 57.68 29.59 75.25 22.59 82.24"/><circle class="cls-3" cx="17.63" cy="60.99" r="0.7"/><polygon class="cls-3" points="12.69 89.37 12.69 125.78 12.81 125.78 12.81 89.42 17.69 84.55 17.69 60.99 17.57 60.99 17.57 84.5 12.69 89.37"/><path class="cls-3" d="M74.3,61.69a.7.7,0,1,0-.7-.7A.69.69,0,0,0,74.3,61.69Z"/><polygon class="cls-3" points="69.36 89.37 69.36 125.78 69.48 125.78 69.48 89.42 74.36 84.55 74.36 60.99 74.24 60.99 74.24 84.5 69.36 89.37"/><circle class="cls-3" cx="55.85" cy="89.46" r="0.7"/><polygon class="cls-3" points="50.91 117.84 50.91 154.25 51.03 154.25 51.03 117.89 55.91 113.02 55.91 89.46 55.79 89.46 55.79 112.97 50.91 117.84"/><polygon class="cls-3" points="7.22 102.7 7.22 137 7.35 137 7.35 102.82 14.86 102.82 14.86 80.2 14.84 80.19 10.31 75.66 10.31 63.88 10.19 63.88 10.19 75.71 10.21 75.73 14.73 80.25 14.73 102.7 7.22 102.7"/><path class="cls-3" d="M10.26,62.3a.88.88,0,1,1-.88.88A.88.88,0,0,1,10.26,62.3Zm0,.37a.51.51,0,0,0-.52.51.52.52,0,1,0,1,0A.51.51,0,0,0,10.26,62.67Z"/><path class="cls-3" d="M2.06,62.3a.88.88,0,1,1-.87.88A.88.88,0,0,1,2.06,62.3Zm0,.37a.51.51,0,0,0-.51.51.52.52,0,1,0,1,0A.51.51,0,0,0,2.06,62.67Z"/><polygon class="cls-3" points="2 63.88 2 78.86 2.02 78.88 9.39 86.25 9.39 131.15 9.51 131.15 9.51 86.2 9.49 86.18 2.12 78.81 2.12 63.88 2 63.88"/><circle class="cls-3" cx="24.23" cy="76.17" r="0.7"/><polygon class="cls-3" points="16.74 96.03 16.74 135.16 16.86 135.16 16.86 96.08 24.29 88.65 24.29 76.17 24.17 76.17 24.17 88.6 16.74 96.03"/><polygon class="cls-3" points="47.51 102.91 47.51 130.51 47.61 130.51 47.61 103.02 53.73 103.02 53.73 83.34 53.71 83.33 50.03 79.39 50.03 69.14 49.93 69.14 49.93 79.43 49.94 79.45 53.63 83.38 53.63 102.91 47.51 102.91"/><circle class="cls-3" cx="49.98" cy="69.14" r="0.7"/><polygon class="cls-3" points="51.97 77.09 51.97 92.81 51.95 92.82 45.37 99.41 45.37 144.59 45.25 144.59 45.25 99.36 45.27 99.34 51.85 92.75 51.85 77.09 51.97 77.09"/><circle class="cls-3" cx="51.91" cy="77.09" r="0.7"/><path class="cls-3" d="M3.64,84a.88.88,0,1,1-.88.88A.88.88,0,0,1,3.64,84Zm0,.36a.52.52,0,0,0-.51.52.51.51,0,0,0,1,0A.52.52,0,0,0,3.64,84.39Z"/><polygon class="cls-3" points="0.61 124.43 0.61 139.13 0.73 139.13 0.73 124.55 8.24 124.55 8.24 101.93 8.22 101.91 3.7 97.39 3.7 85.6 3.58 85.6 3.58 97.44 3.6 97.46 8.12 101.98 8.12 124.43 0.61 124.43"/><polygon class="cls-3" points="40.53 98.76 40.53 135.25 40.66 135.25 40.66 98.88 48.16 98.88 48.16 76.26 48.15 76.25 43.62 71.72 43.62 59.94 43.5 59.94 43.5 71.77 43.52 71.79 48.04 76.31 48.04 98.76 40.53 98.76"/><path class="cls-3" d="M43.48,58.37a.87.87,0,1,1-.79,1A.88.88,0,0,1,43.48,58.37Zm0,.36a.51.51,0,1,0,.57.46A.52.52,0,0,0,43.51,58.73Z"/><circle class="cls-3" cx="43.66" cy="76.14" r="0.7"/><polygon class="cls-3" points="48.6 104.52 48.6 132.34 48.48 132.34 48.48 104.57 43.6 99.69 43.6 76.14 43.72 76.14 43.72 99.64 48.6 104.52"/><polygon class="cls-3" points="46.84 88.08 46.84 130.09 46.72 130.09 46.72 88.14 39.73 81.14 39.73 63.52 39.85 63.52 39.85 81.09 46.84 88.08"/><circle class="cls-3" cx="39.78" cy="63.52" r="0.7"/><polygon class="cls-3" points="49.91 92.14 49.91 132.04 49.79 132.04 49.79 92.26 42.28 92.26 42.28 69.65 42.3 69.63 46.82 65.11 46.82 53.32 46.94 53.32 46.94 65.16 46.93 65.17 42.4 69.7 42.4 92.14 49.91 92.14"/><path class="cls-3" d="M47.76,52.62a.88.88,0,1,1-.88-.87A.88.88,0,0,1,47.76,52.62Zm-1.39,0a.51.51,0,1,0,.51-.51A.51.51,0,0,0,46.37,52.62Z"/><path class="cls-3" d="M59.37,75.15a.88.88,0,1,1-1.76,0,.88.88,0,0,1,1.76,0Zm-1.39,0a.51.51,0,0,0,.51.52.52.52,0,1,0,0-1A.51.51,0,0,0,58,75.15Z"/><polygon class="cls-3" points="58.55 75.85 58.55 90.84 58.53 90.85 51.17 98.22 51.17 143.98 51.04 143.98 51.04 98.17 51.06 98.16 58.43 90.79 58.43 75.85 58.55 75.85"/><path class="cls-3" d="M36.33,84.39A.7.7,0,1,1,37,83.7.69.69,0,0,1,36.33,84.39Z"/><polygon class="cls-3" points="43.82 103.56 43.82 128.95 43.7 128.95 43.7 103.61 36.27 96.18 36.27 83.7 36.39 83.7 36.39 96.13 43.82 103.56"/><circle class="cls-3" cx="35.85" cy="66.03" r="0.66"/><polygon class="cls-3" points="35.91 66.03 35.91 80.94 35.89 80.95 29.64 87.2 29.64 130.06 29.53 130.06 29.53 87.15 29.54 87.13 35.79 80.89 35.79 66.03 35.91 66.03"/><circle class="cls-3" cx="19.09" cy="69.45" r="0.7"/><polygon class="cls-3" points="25.78 92.75 25.78 132.54 25.66 132.54 25.66 92.8 19.03 86.16 19.03 69.45 19.14 69.45 19.14 86.12 25.78 92.75"/><circle class="cls-3" cx="71.48" cy="82.31" r="0.7"/><polygon class="cls-3" points="78.18 105.61 78.18 145.4 78.06 145.4 78.06 105.66 71.42 99.02 71.42 82.31 71.54 82.31 71.54 98.97 78.18 105.61"/><circle class="cls-3" cx="27.6" cy="47.88" r="0.66"/><polygon class="cls-3" points="32.34 74.66 32.34 133.11 32.23 133.11 32.23 74.71 27.61 70.08 27.61 47.74 27.72 47.74 27.72 70.04 32.34 74.66"/><path class="cls-3" d="M27.34,82.31a.78.78,0,1,1-.78-.78A.78.78,0,0,1,27.34,82.31Zm-1.24,0a.46.46,0,0,0,.92,0,.46.46,0,0,0-.92,0Z"/><polygon class="cls-3" points="26.61 82.93 26.61 96.24 26.6 96.25 20.05 102.8 20.05 125.25 19.95 125.25 19.95 102.75 19.96 102.73 26.51 96.19 26.51 82.93 26.61 82.93"/><path class="cls-3" d="M78.18,88.1a.78.78,0,0,1-1.56,0,.78.78,0,0,1,1.56,0Zm-1.24,0a.46.46,0,0,0,.46.46.46.46,0,0,0,0-.91A.46.46,0,0,0,76.94,88.1Z"/><polygon class="cls-3" points="77.45 88.72 77.45 102.03 77.44 102.05 70.89 108.59 70.89 131.05 70.78 131.05 70.78 108.55 70.8 108.53 77.34 101.99 77.34 88.72 77.45 88.72"/><path class="cls-3" d="M3.63,103a.78.78,0,1,1-.78-.78A.78.78,0,0,1,3.63,103Zm-1.24,0a.46.46,0,0,0,.46.45A.45.45,0,0,0,3.3,103a.46.46,0,0,0-.45-.46A.47.47,0,0,0,2.39,103Z"/><polygon class="cls-3" points="2.9 103.63 2.9 116.94 2.89 116.95 -3.66 123.5 -3.66 145.95 -3.77 145.95 -3.77 123.45 -3.75 123.43 2.79 116.89 2.79 103.63 2.9 103.63"/><path class="cls-3" d="M38.07,110.06a.78.78,0,1,1-.78-.78A.78.78,0,0,1,38.07,110.06Zm-1.24,0a.46.46,0,1,0,.46-.45A.46.46,0,0,0,36.83,110.06Z"/><polygon class="cls-3" points="37.34 110.68 37.34 123.99 37.33 124.01 30.79 130.55 30.79 153.01 30.68 153.01 30.68 130.51 30.69 130.49 37.24 123.95 37.24 110.68 37.34 110.68"/><path class="cls-3" d="M67.79,105.87a.78.78,0,0,1-1.56,0,.78.78,0,0,1,1.56,0Zm-1.24,0a.46.46,0,1,0,.46-.45A.46.46,0,0,0,66.55,105.87Z"/><polygon class="cls-3" points="67.06 106.49 67.06 119.8 67.05 119.82 60.5 126.36 60.5 148.82 60.4 148.82 60.4 126.32 60.41 126.3 66.96 119.76 66.96 106.49 67.06 106.49"/><path class="cls-3" d="M41.76,76.5a.78.78,0,1,1-.78-.78A.78.78,0,0,1,41.76,76.5Zm-1.24,0a.46.46,0,0,0,.92,0,.46.46,0,0,0-.92,0Z"/><polygon class="cls-3" points="41.03 77.12 41.03 90.43 41.02 90.44 34.48 96.98 34.48 137.84 34.37 137.84 34.37 96.94 34.38 96.92 40.93 90.38 40.93 77.12 41.03 77.12"/><path class="cls-3" d="M34.66,57.54a.84.84,0,1,1-.83.83A.83.83,0,0,1,34.66,57.54Zm0,.35a.49.49,0,1,0,.49.48A.49.49,0,0,0,34.66,57.89Z"/><polygon class="cls-3" points="27.97 82.34 27.97 129.49 28.08 129.49 28.08 82.39 34.72 75.75 34.72 59.03 34.6 59.03 34.6 75.7 27.97 82.34"/><path class="cls-3" d="M45.83,71.65a.66.66,0,0,0,.66-.65.66.66,0,1,0-1.32,0A.66.66,0,0,0,45.83,71.65Z"/><polygon class="cls-3" points="41.15 97.92 41.15 132.01 41.26 132.01 41.26 97.97 45.89 93.34 45.89 71 45.77 71 45.77 93.29 41.15 97.92"/><path class="cls-3" d="M35.21,88.92a.83.83,0,1,1,0,1.66.83.83,0,1,1,0-1.66Zm0,.34a.49.49,0,0,0,0,1,.49.49,0,0,0,0-1Z"/><polygon class="cls-3" points="35.15 90.39 35.15 102.29 35.17 102.31 42.16 109.3 42.16 133.29 42.27 133.29 42.27 109.25 42.26 109.23 35.26 102.24 35.26 90.39 35.15 90.39"/><path class="cls-3" d="M38.32,79.52a.66.66,0,1,0-.66-.66A.66.66,0,0,0,38.32,79.52Z"/><polygon class="cls-3" points="31.22 97.7 31.22 136.67 31.33 136.67 31.33 97.75 38.38 90.7 38.38 78.86 38.27 78.86 38.27 90.65 31.22 97.7"/><polygon class="cls-3" points="57.94 43.32 57.94 59.03 57.96 59.05 64.55 65.63 64.55 130.41 64.67 130.41 64.67 65.58 64.65 65.56 58.06 58.98 58.06 43.32 57.94 43.32"/><circle class="cls-3" cx="58" cy="43.32" r="0.7"/><polygon class="cls-3" points="66.92 66.71 66.92 82.42 66.94 82.44 73.52 89.03 73.52 153.81 73.64 153.81 73.64 88.98 73.62 88.96 67.04 82.38 67.04 66.71 66.92 66.71"/><circle class="cls-3" cx="66.98" cy="66.71" r="0.7"/><polygon class="cls-3" points="119.49 56.02 119.49 71.74 119.51 71.75 126.09 78.34 126.09 143.12 126.22 143.12 126.22 78.29 126.2 78.27 119.61 71.69 119.61 56.02 119.49 56.02"/><circle class="cls-3" cx="119.55" cy="56.02" r="0.7"/><path class="cls-3" d="M95.05,58.91a.88.88,0,1,1-.87.88A.87.87,0,0,1,95.05,58.91Zm0,.36a.52.52,0,1,0,.52.52A.51.51,0,0,0,95.05,59.27Z"/><polygon class="cls-3" points="88 85.05 88 133.31 88.12 133.31 88.12 85.1 95.11 78.1 95.11 60.48 94.99 60.48 94.99 78.05 88 85.05"/><path class="cls-3" d="M86,71a.7.7,0,1,0-.7-.69A.69.69,0,0,0,86,71Z"/><polygon class="cls-3" points="81.03 98.68 81.03 135.08 81.15 135.08 81.15 98.73 86.03 93.85 86.03 70.3 85.91 70.3 85.91 93.8 81.03 98.68"/><circle class="cls-3" cx="127.47" cy="86.87" r="0.7"/><polygon class="cls-3" points="122.54 115.25 122.54 151.65 122.66 151.65 122.66 115.3 127.53 110.42 127.53 86.87 127.41 86.87 127.41 110.37 122.54 115.25"/><polygon class="cls-3" points="74.48 109.61 74.48 143.91 74.6 143.91 74.6 109.73 82.11 109.73 82.11 87.11 82.09 87.09 77.57 82.57 77.57 70.78 77.45 70.78 77.45 82.62 77.47 82.64 81.99 87.16 81.99 109.61 74.48 109.61"/><path class="cls-3" d="M77.51,69.21a.88.88,0,1,1-.88.88A.87.87,0,0,1,77.51,69.21Zm0,.36a.52.52,0,1,0,.52.52A.51.51,0,0,0,77.51,69.57Z"/><path class="cls-3" d="M55.53,62.3a.88.88,0,1,1-.88.88A.88.88,0,0,1,55.53,62.3Zm0,.37a.51.51,0,0,0-.52.51.52.52,0,1,0,1,0A.51.51,0,0,0,55.53,62.67Z"/><polygon class="cls-3" points="55.47 63.88 55.47 78.86 55.48 78.88 62.85 86.25 62.85 131.15 62.97 131.15 62.97 86.2 62.96 86.18 55.59 78.81 55.59 63.88 55.47 63.88"/><circle class="cls-3" cx="85.79" cy="98.41" r="0.7"/><polygon class="cls-3" points="78.3 118.27 78.3 157.4 78.42 157.4 78.42 118.32 85.85 110.89 85.85 98.41 85.73 98.41 85.73 110.83 78.3 118.27"/><polygon class="cls-3" points="118.56 110.54 118.56 138.14 118.66 138.14 118.66 110.65 124.78 110.65 124.78 90.97 124.76 90.96 121.08 87.02 121.08 76.77 120.98 76.77 120.98 87.06 120.99 87.08 124.68 91.02 124.68 110.54 118.56 110.54"/><path class="cls-3" d="M121,77.46a.7.7,0,1,1,.7-.69A.7.7,0,0,1,121,77.46Z"/><polygon class="cls-3" points="117.34 68.48 117.34 84.19 117.33 84.21 110.74 90.8 110.74 135.97 110.62 135.97 110.62 90.75 110.64 90.73 117.22 84.14 117.22 68.48 117.34 68.48"/><circle class="cls-3" cx="117.28" cy="68.48" r="0.7"/><path class="cls-3" d="M57.31,84a.88.88,0,1,1-.88.88A.87.87,0,0,1,57.31,84Zm0,.36a.52.52,0,0,0-.52.52.52.52,0,0,0,1,0A.52.52,0,0,0,57.31,84.39Z"/><polygon class="cls-3" points="54.27 124.43 54.27 139.13 54.4 139.13 54.4 124.55 61.91 124.55 61.91 101.93 61.89 101.91 57.36 97.39 57.36 85.6 57.24 85.6 57.24 97.44 57.26 97.46 61.78 101.98 61.78 124.43 54.27 124.43"/><polygon class="cls-3" points="104.07 98.76 104.07 135.25 104.19 135.25 104.19 98.88 111.7 98.88 111.7 76.26 111.69 76.25 107.16 71.72 107.16 59.94 107.04 59.94 107.04 71.77 107.06 71.79 111.58 76.31 111.58 98.76 104.07 98.76"/><path class="cls-3" d="M107,58.37a.87.87,0,1,1-.79,1A.88.88,0,0,1,107,58.37Zm0,.36a.51.51,0,1,0,.57.46A.52.52,0,0,0,107.05,58.73Z"/><circle class="cls-3" cx="109.78" cy="76.14" r="0.7"/><polygon class="cls-3" points="114.72 104.52 114.72 132.34 114.6 132.34 114.6 104.57 109.72 99.69 109.72 76.14 109.84 76.14 109.84 99.64 114.72 104.52"/><polygon class="cls-3" points="115.65 77.42 115.65 126.96 115.53 126.96 115.53 77.47 108.53 70.47 108.53 52.85 108.65 52.85 108.65 70.42 115.65 77.42"/><path class="cls-3" d="M108.59,53.55a.7.7,0,1,1,.69-.7A.7.7,0,0,1,108.59,53.55Z"/><polygon class="cls-3" points="121.08 92.14 121.08 132.04 120.96 132.04 120.96 92.26 113.45 92.26 113.45 69.65 113.47 69.63 117.99 65.11 117.99 53.32 118.11 53.32 118.11 65.16 118.09 65.17 113.57 69.7 113.57 92.14 121.08 92.14"/><path class="cls-3" d="M118.93,52.62a.88.88,0,1,1-.88-.87A.88.88,0,0,1,118.93,52.62Zm-1.4,0a.52.52,0,0,0,.52.52.52.52,0,0,0,0-1A.52.52,0,0,0,117.53,52.62Z"/><path class="cls-3" d="M125.59,69.65a.88.88,0,1,1-.88-.88A.88.88,0,0,1,125.59,69.65Zm-1.39,0a.51.51,0,0,0,.51.51.51.51,0,1,0,0-1A.51.51,0,0,0,124.2,69.65Z"/><polygon class="cls-3" points="124.77 70.35 124.77 85.33 124.75 85.35 117.39 92.72 117.39 138.48 117.26 138.48 117.26 92.67 117.28 92.65 124.65 85.28 124.65 70.35 124.77 70.35"/><path class="cls-3" d="M101.89,84.39a.7.7,0,1,1,.69-.69A.69.69,0,0,1,101.89,84.39Z"/><polygon class="cls-3" points="109.38 103.56 109.38 128.95 109.26 128.95 109.26 103.61 101.83 96.18 101.83 83.7 101.95 83.7 101.95 96.13 109.38 103.56"/><path class="cls-3" d="M103.86,74.66a.66.66,0,0,1,0-1.32.66.66,0,1,1,0,1.32Z"/><polygon class="cls-3" points="103.92 74 103.92 88.9 103.91 88.92 97.66 95.16 97.66 138.02 97.54 138.02 97.54 95.12 97.56 95.1 103.81 88.85 103.81 74 103.92 74"/><path class="cls-3" d="M80.53,64.05a.7.7,0,1,0-.7-.7A.69.69,0,0,0,80.53,64.05Z"/><polygon class="cls-3" points="87.22 86.66 87.22 126.45 87.11 126.45 87.11 86.7 80.47 80.07 80.47 63.35 80.59 63.35 80.59 80.02 87.22 86.66"/><path class="cls-3" d="M87.22,51a.66.66,0,1,1,.66-.66A.66.66,0,0,1,87.22,51Z"/><polygon class="cls-3" points="91.96 77.07 91.96 135.52 91.85 135.52 91.85 77.12 87.22 72.49 87.22 50.15 87.34 50.15 87.34 72.44 91.96 77.07"/><path class="cls-3" d="M90.42,86.89a.78.78,0,1,1-.78-.78A.78.78,0,0,1,90.42,86.89Zm-1.23,0a.46.46,0,0,0,.91,0,.46.46,0,1,0-.91,0Z"/><polygon class="cls-3" points="89.7 87.5 89.7 100.81 89.68 100.83 83.14 107.38 83.14 129.83 83.03 129.83 83.03 107.33 83.05 107.31 89.59 100.77 89.59 87.5 89.7 87.5"/><path class="cls-3" d="M59.51,101.42a.78.78,0,1,1-.78-.78A.78.78,0,0,1,59.51,101.42Zm-1.24,0a.46.46,0,0,0,.92,0,.46.46,0,0,0-.92,0Z"/><polygon class="cls-3" points="58.78 102.03 58.78 115.34 58.77 115.36 52.23 121.91 52.23 144.36 52.12 144.36 52.12 121.86 52.13 121.84 58.68 115.3 58.68 102.03 58.78 102.03"/><path class="cls-3" d="M96,107.11a.78.78,0,1,1-.78-.78A.78.78,0,0,1,96,107.11Zm-1.23,0a.45.45,0,0,0,.45.45.46.46,0,1,0,0-.91A.45.45,0,0,0,94.79,107.11Z"/><polygon class="cls-3" points="95.3 107.72 95.3 121.03 95.28 121.05 88.74 127.59 88.74 150.05 88.63 150.05 88.63 127.55 88.64 127.53 95.19 120.99 95.19 107.72 95.3 107.72"/><path class="cls-3" d="M108.59,93.33a.78.78,0,1,1-.78-.78A.78.78,0,0,1,108.59,93.33Zm-1.24,0a.46.46,0,1,0,.46-.46A.45.45,0,0,0,107.35,93.33Z"/><polygon class="cls-3" points="107.86 93.94 107.86 107.25 107.84 107.27 101.3 113.81 101.3 136.27 101.19 136.27 101.19 113.77 101.21 113.75 107.75 107.21 107.75 93.94 107.86 93.94"/><path class="cls-3" d="M113.42,98.92a.78.78,0,1,1-.78-.78A.78.78,0,0,1,113.42,98.92Zm-1.24,0a.46.46,0,1,0,.46-.46A.46.46,0,0,0,112.18,98.92Z"/><polygon class="cls-3" points="112.69 99.53 112.69 112.84 112.68 112.86 106.13 119.4 106.13 141.86 106.03 141.86 106.03 119.36 106.04 119.34 112.59 112.8 112.59 99.53 112.69 99.53"/><path class="cls-3" d="M97.8,76.5a.78.78,0,1,1-.78-.78A.78.78,0,0,1,97.8,76.5Zm-1.24,0a.46.46,0,0,0,.92,0,.46.46,0,0,0-.92,0Z"/><polygon class="cls-3" points="97.07 77.12 97.07 90.43 97.06 90.44 90.52 96.98 90.52 137.84 90.41 137.84 90.41 96.94 90.42 96.92 96.97 90.38 96.97 77.12 97.07 77.12"/><path class="cls-3" d="M100,62.47a.83.83,0,1,1-.83.83A.84.84,0,0,1,100,62.47Zm0,.34a.49.49,0,1,0,.49.49A.49.49,0,0,0,100,62.81Z"/><polygon class="cls-3" points="93.31 87.27 93.31 134.42 93.43 134.42 93.43 87.31 100.06 80.68 100.06 63.96 99.95 63.96 99.95 80.63 93.31 87.27"/><path class="cls-3" d="M98.7,71.65a.66.66,0,0,0,.66-.65A.66.66,0,1,0,98,71,.65.65,0,0,0,98.7,71.65Z"/><polygon class="cls-3" points="94.02 97.92 94.02 132.01 94.13 132.01 94.13 97.97 98.75 93.34 98.75 71 98.64 71 98.64 93.29 94.02 97.92"/><path class="cls-3" d="M100.09,88.92a.83.83,0,1,1-.83.83A.83.83,0,0,1,100.09,88.92Zm0,.34a.49.49,0,1,0,.49.49A.49.49,0,0,0,100.09,89.26Z"/><polygon class="cls-3" points="100.03 90.39 100.03 102.29 100.05 102.31 107.04 109.3 107.04 133.29 107.15 133.29 107.15 109.25 107.14 109.23 100.14 102.24 100.14 90.39 100.03 90.39"/><circle class="cls-3" cx="107.75" cy="78.86" r="0.66"/><polygon class="cls-3" points="100.64 97.7 100.64 136.67 100.76 136.67 100.76 97.75 107.81 90.7 107.81 78.86 107.69 78.86 107.69 90.65 100.64 97.7"/><path class="cls-3" d="M67.12,89.2a.88.88,0,1,1-.87.88A.87.87,0,0,1,67.12,89.2Zm0,.36a.52.52,0,1,0,.52.52A.51.51,0,0,0,67.12,89.56Z"/><polygon class="cls-3" points="64.09 129.6 64.09 144.3 64.21 144.3 64.21 129.72 71.72 129.72 71.72 107.1 71.71 107.08 67.18 102.56 67.18 90.77 67.06 90.77 67.06 102.61 67.08 102.63 71.6 107.15 71.6 129.6 64.09 129.6"/><path class="cls-4" d="M143.93,92.31V93h-1.68v-.68Zm-.12.56v-.44h-1.44v.44Z"/><path class="cls-4" d="M143.93,91.43v.68h-1.68v-.68Zm-.12.56v-.44h-1.44V92Z"/><path class="cls-4" d="M143.93,90.51v.68h-1.68v-.68Zm-.12.56v-.44h-1.44v.44Z"/><rect class="cls-4" x="171.39" y="107.49" width="0.56" height="1.55" transform="translate(63.4 279.93) rotate(-90)"/><rect class="cls-4" x="171.39" y="106.61" width="0.56" height="1.55" transform="translate(64.28 279.05) rotate(-90)"/><rect class="cls-4" x="171.39" y="105.7" width="0.56" height="1.55" transform="translate(65.19 278.14) rotate(-90)"/><polygon class="cls-4" points="131.71 83.23 132.1 83.63 132.38 82.81 133.2 82.53 132.81 82.14 131.98 82.42 131.71 83.23"/><polygon class="cls-4" points="131.04 82.57 131.43 82.96 131.71 82.14 132.53 81.86 132.14 81.47 131.32 81.75 131.04 82.57"/><polygon class="cls-4" points="130.37 81.9 130.77 82.3 131.05 81.48 131.87 81.2 131.47 80.81 130.65 81.08 130.37 81.9"/><rect class="cls-4" x="127.47" y="65.8" width="0.12" height="11.75"/><polygon class="cls-4" points="133.78 85.31 135.11 86.64 135.11 89.17 135.23 89.17 135.23 86.58 133.87 85.22 133.78 85.31"/><path class="cls-4" d="M156.77,100.88v.68h-1.68v-.68Zm-.12.56V101h-1.44v.44Z"/><path class="cls-4" d="M156.77,100v.67h-1.68V100Zm-.12.55v-.43h-1.44v.43Z"/><path class="cls-4" d="M156.77,99.09v.68h-1.68v-.68Zm-.12.56v-.44h-1.44v.44Z"/><rect class="cls-4" x="161.97" y="106.06" width="0.56" height="1.55" transform="translate(55.41 269.09) rotate(-90)"/><rect class="cls-4" x="161.97" y="105.18" width="0.56" height="1.55" transform="translate(56.29 268.21) rotate(-90)"/><rect class="cls-4" x="161.97" y="104.27" width="0.56" height="1.55" transform="translate(57.21 267.29) rotate(-90)"/><path class="cls-4" d="M165.05,71.34V72l-.84-.42-.84.42v-.7l.84-.41Zm-.13.5v-.42l-.71-.35-.72.35v.42l.72-.35Z"/><path class="cls-4" d="M165.05,70.4v.7l-.84-.42-.84.42v-.7l.84-.41Zm-.13.5v-.42l-.71-.36-.72.36v.42l.72-.35Z"/><path class="cls-4" d="M165.05,69.46v.69l-.84-.41-.84.41v-.69l.84-.41Zm-.13.5v-.42l-.71-.36-.72.36V70l.72-.35Z"/><rect class="cls-4" x="155.52" y="64.74" width="0.12" height="5.23" transform="translate(-2.06 129.74) rotate(-45)"/><g class="cls-5"><rect class="cls-4" x="134.32" y="97.71" width="0.53" height="1.47" transform="translate(36.14 233.03) rotate(-90)"/><rect class="cls-4" x="134.32" y="96.87" width="0.53" height="1.47" transform="translate(36.98 232.2) rotate(-90)"/><rect class="cls-4" x="134.32" y="96.01" width="0.53" height="1.47" transform="translate(37.84 231.33) rotate(-90)"/></g><rect class="cls-4" x="129.72" y="91.47" width="0.53" height="1.47" transform="translate(37.78 222.2) rotate(-90)"/><rect class="cls-4" x="129.72" y="90.64" width="0.53" height="1.47" transform="translate(38.61 221.36) rotate(-90)"/><rect class="cls-4" x="129.72" y="89.77" width="0.53" height="1.47" transform="translate(39.48 220.5) rotate(-90)"/><g class="cls-5"><polygon class="cls-4" points="181.32 103.75 181.32 104.47 182.19 103.97 183.07 104.47 183.07 103.75 182.19 103.26 181.32 103.75"/><polygon class="cls-4" points="181.32 102.55 181.32 103.26 182.19 102.76 183.07 103.26 183.07 102.55 182.19 102.05 181.32 102.55"/><polygon class="cls-4" points="181.32 101.34 181.32 102.05 182.19 101.56 183.07 102.05 183.07 101.34 182.19 100.84 181.32 101.34"/></g><g class="cls-5"><rect class="cls-4" x="140" y="115.95" width="0.8" height="0.8" transform="translate(24.05 256.74) rotate(-90)"/><rect class="cls-4" x="140" y="113.91" width="0.8" height="0.8" transform="translate(26.09 254.7) rotate(-90)"/><rect class="cls-4" x="140" y="114.93" width="0.8" height="0.8" transform="translate(25.07 255.72) rotate(-90)"/><rect class="cls-4" x="140" y="112.89" width="0.8" height="0.8" transform="translate(27.11 253.68) rotate(-90)"/><rect class="cls-4" x="140" y="111.86" width="0.8" height="0.8" transform="translate(28.13 252.66) rotate(-90)"/></g><g class="cls-5"><rect class="cls-4" x="147.26" y="93.4" width="0.81" height="1.19" transform="translate(53.67 241.67) rotate(-90)"/><rect class="cls-4" x="147.26" y="94.77" width="0.81" height="1.19" transform="translate(52.3 243.03) rotate(-90)"/><rect class="cls-4" x="147.26" y="96.13" width="0.81" height="1.19" transform="translate(50.94 244.4) rotate(-90)"/></g><polygon class="cls-6" points="152.99 44.2 152.13 43.34 151.28 44.2 152.04 44.2 152.04 52.37 152.23 52.37 152.23 44.2 152.99 44.2"/><path class="cls-4" d="M191.79,92.31V93h-1.67v-.68Zm-.12.56v-.44h-1.43v.44Z"/><path class="cls-4" d="M191.79,91.43v.68h-1.67v-.68Zm-.12.56v-.44h-1.43V92Z"/><path class="cls-4" d="M191.79,90.51v.68h-1.67v-.68Zm-.12.56v-.44h-1.43v.44Z"/><path class="cls-4" d="M144,76.79l.83.41v.69l-.83-.41-.84.41V77.2Zm0,.55.71.36v-.43l-.71-.35-.72.35v.43Z"/><path class="cls-4" d="M144,75.84l.83.42V77l-.83-.41-.84.41v-.69Zm0,.56.71.36v-.43L144,76l-.72.35v.43Z"/><path class="cls-4" d="M144,74.9l.83.42V76L144,75.6l-.84.41v-.69Zm0,.56.71.35v-.42L144,75l-.72.35v.42Z"/><polygon class="cls-4" points="185.17 83.23 185.56 83.63 185.84 82.81 186.66 82.53 186.27 82.14 185.45 82.42 185.17 83.23"/><polygon class="cls-4" points="184.5 82.57 184.9 82.96 185.18 82.14 186 81.86 185.6 81.47 184.78 81.75 184.5 82.57"/><polygon class="cls-4" points="183.84 81.9 184.23 82.3 184.51 81.48 185.33 81.2 184.94 80.81 184.12 81.08 183.84 81.9"/><rect class="cls-4" x="180.94" y="66.73" width="0.12" height="11.75"/><rect class="cls-4" x="196.31" y="98.32" width="0.12" height="11.54"/><polygon class="cls-4" points="187.25 85.31 188.57 86.64 188.57 89.17 188.69 89.17 188.69 86.58 187.33 85.22 187.25 85.31"/><path class="cls-4" d="M211.91,100.88v.68h-1.68v-.68Zm-.12.56V101h-1.44v.44Z"/><path class="cls-4" d="M211.91,100v.67h-1.68V100Zm-.12.55v-.43h-1.44v.43Z"/><path class="cls-4" d="M211.91,99.09v.68h-1.68v-.68Zm-.12.56v-.44h-1.44v.44Z"/><rect class="cls-4" x="217.49" y="89.51" width="0.56" height="1.55" transform="translate(127.48 308.05) rotate(-90)"/><rect class="cls-4" x="217.49" y="88.63" width="0.56" height="1.55" transform="translate(128.36 307.17) rotate(-90)"/><rect class="cls-4" x="217.49" y="87.71" width="0.56" height="1.55" transform="translate(129.28 306.25) rotate(-90)"/><path class="cls-4" d="M222.79,77.75v.7L222,78l-.84.42v-.7l.84-.41Zm-.13.5v-.42l-.71-.36-.72.36v.42l.72-.35Z"/><path class="cls-4" d="M222.79,76.81v.69l-.84-.41-.84.41v-.69l.84-.41Zm-.13.5v-.42l-.71-.36-.72.36v.42L222,77Z"/><path class="cls-4" d="M222.79,75.87v.69l-.84-.41-.84.41v-.69l.84-.41Zm-.13.5V76l-.71-.36-.72.36v.42L222,76Z"/><rect class="cls-4" x="239" y="66.73" width="0.12" height="11.75"/><rect class="cls-4" x="205.3" y="72.68" width="0.12" height="5.23" transform="translate(6.91 167.27) rotate(-45)"/><rect class="cls-4" x="226.46" y="87.69" width="0.12" height="11.54"/><polygon class="cls-4" points="232.77 85.63 231.45 86.95 231.45 89.49 231.33 89.49 231.33 86.9 232.69 85.54 232.77 85.63"/><rect class="cls-4" x="205.41" y="100.64" width="0.11" height="14.34"/><g class="cls-5"><rect class="cls-4" x="186.85" y="95.01" width="0.53" height="1.47" transform="translate(91.37 282.87) rotate(-90)"/><rect class="cls-4" x="186.85" y="94.18" width="0.53" height="1.47" transform="translate(92.2 282.03) rotate(-90)"/><rect class="cls-4" x="186.85" y="93.31" width="0.53" height="1.47" transform="translate(93.07 281.16) rotate(-90)"/></g><rect class="cls-4" x="183.39" y="91.47" width="0.53" height="1.47" transform="translate(91.44 275.86) rotate(-90)"/><rect class="cls-4" x="183.39" y="90.64" width="0.53" height="1.47" transform="translate(92.27 275.03) rotate(-90)"/><rect class="cls-4" x="183.39" y="89.77" width="0.53" height="1.47" transform="translate(93.14 274.16) rotate(-90)"/><rect class="cls-4" x="211.1" y="94.01" width="6.91" height="0.12" transform="translate(-3.67 179.27) rotate(-45)"/><g class="cls-5"><polygon class="cls-4" points="186.29 54.95 186.29 55.67 187.16 55.17 188.04 55.67 188.04 54.95 187.16 54.46 186.29 54.95"/><polygon class="cls-4" points="186.29 53.75 186.29 54.46 187.16 53.96 188.04 54.46 188.04 53.75 187.16 53.25 186.29 53.75"/><polygon class="cls-4" points="186.29 52.54 186.29 53.25 187.16 52.76 188.04 53.25 188.04 52.54 187.16 52.04 186.29 52.54"/><polygon class="cls-4" points="186.29 51.33 186.29 52.04 187.16 51.55 188.04 52.04 188.04 51.33 187.16 50.84 186.29 51.33"/><polygon class="cls-4" points="186.29 50.13 186.29 50.84 187.16 50.34 188.04 50.84 188.04 50.13 187.16 49.63 186.29 50.13"/></g><g class="cls-5"><polygon class="cls-4" points="237.97 107.67 237.97 108.38 238.85 107.88 239.72 108.38 239.72 107.67 238.85 107.17 237.97 107.67"/><polygon class="cls-4" points="237.97 106.46 237.97 107.17 238.85 106.67 239.72 107.17 239.72 106.46 238.85 105.96 237.97 106.46"/><polygon class="cls-4" points="237.97 105.25 237.97 105.96 238.85 105.47 239.72 105.96 239.72 105.25 238.85 104.75 237.97 105.25"/></g><g class="cls-5"><rect class="cls-4" x="183.25" y="114.01" width="0.8" height="0.8" transform="translate(69.24 298.06) rotate(-90)"/><rect class="cls-4" x="183.25" y="111.97" width="0.8" height="0.8" transform="translate(71.28 296.02) rotate(-90)"/><rect class="cls-4" x="183.25" y="112.99" width="0.8" height="0.8" transform="translate(70.27 297.04) rotate(-90)"/><rect class="cls-4" x="183.25" y="110.95" width="0.8" height="0.8" transform="translate(72.31 295) rotate(-90)"/><rect class="cls-4" x="183.25" y="109.92" width="0.8" height="0.8" transform="translate(73.33 293.97) rotate(-90)"/></g><g class="cls-5"><rect class="cls-4" x="217.5" y="113.9" width="0.8" height="0.8" transform="translate(103.6 332.19) rotate(-90)"/><rect class="cls-4" x="218.79" y="113.9" width="0.8" height="0.8" transform="translate(104.89 333.48) rotate(-90)"/><rect class="cls-4" x="217.5" y="112.87" width="0.8" height="0.8" transform="translate(104.62 331.17) rotate(-90)"/><rect class="cls-4" x="218.79" y="112.87" width="0.8" height="0.8" transform="translate(105.92 332.46) rotate(-90)"/></g><g class="cls-5"><rect class="cls-4" x="199.76" y="94.38" width="0.81" height="1.19" transform="translate(105.19 295.15) rotate(-90)"/><rect class="cls-4" x="199.76" y="95.75" width="0.81" height="1.19" transform="translate(103.82 296.52) rotate(-90)"/><rect class="cls-4" x="199.76" y="97.12" width="0.81" height="1.19" transform="translate(102.46 297.88) rotate(-90)"/></g><g class="cls-5"><rect class="cls-4" x="233.51" y="111.93" width="0.81" height="1.19" transform="translate(121.39 346.43) rotate(-90)"/><rect class="cls-4" x="233.51" y="113.29" width="0.81" height="1.19" transform="translate(120.02 347.8) rotate(-90)"/><rect class="cls-4" x="233.51" y="114.66" width="0.81" height="1.19" transform="translate(118.66 349.16) rotate(-90)"/></g><polygon class="cls-4" points="5.36 83.23 5.75 83.63 6.03 82.81 6.85 82.53 6.46 82.14 5.64 82.42 5.36 83.23"/><polygon class="cls-4" points="4.69 82.57 5.09 82.96 5.37 82.14 6.19 81.86 5.79 81.47 4.97 81.75 4.69 82.57"/><polygon class="cls-4" points="4.03 81.9 4.42 82.3 4.7 81.48 5.52 81.2 5.13 80.81 4.31 81.08 4.03 81.9"/><rect class="cls-4" x="1.13" y="65.8" width="0.12" height="11.75"/><rect class="cls-4" x="13.99" y="82.72" width="0.12" height="17.27"/><rect class="cls-4" x="16.87" y="72.54" width="0.12" height="11.54"/><polygon class="cls-4" points="7.44 85.31 8.76 86.64 8.76 89.17 8.88 89.17 8.88 86.58 7.52 85.22 7.44 85.31"/><path class="cls-4" d="M30.42,93.1v.68H28.75V93.1Zm-.12.56v-.44H28.87v.44Z"/><path class="cls-4" d="M30.42,92.23v.67H28.75v-.67Zm-.12.55v-.43H28.87v.43Z"/><path class="cls-4" d="M30.42,91.31V92H28.75v-.68Zm-.12.56v-.44H28.87v.44Z"/><rect class="cls-4" x="35.63" y="106.06" width="0.56" height="1.55" transform="translate(-70.93 142.74) rotate(-90)"/><rect class="cls-4" x="35.63" y="105.18" width="0.56" height="1.55" transform="translate(-70.05 141.86) rotate(-90)"/><rect class="cls-4" x="35.63" y="104.27" width="0.56" height="1.55" transform="translate(-69.14 140.95) rotate(-90)"/><path class="cls-4" d="M40.63,71.73v.7L39.79,72l-.84.42v-.7l.84-.41Zm-.12.5v-.42l-.72-.36-.71.36v.42l.71-.35Z"/><path class="cls-4" d="M40.63,70.79v.69l-.84-.41-.84.41v-.69l.84-.41Zm-.12.5v-.42l-.72-.36-.71.36v.42l.71-.35Z"/><path class="cls-4" d="M40.63,69.85v.69l-.84-.41-.84.41v-.69l.84-.41Zm-.12.5v-.42l-.72-.36-.71.36v.42l.71-.36Z"/><g class="cls-5"><rect class="cls-4" x="7.98" y="97.71" width="0.53" height="1.47" transform="translate(-90.2 106.69) rotate(-90)"/><rect class="cls-4" x="7.98" y="96.87" width="0.53" height="1.47" transform="translate(-89.37 105.85) rotate(-90)"/><rect class="cls-4" x="7.98" y="96.01" width="0.53" height="1.47" transform="translate(-88.5 104.98) rotate(-90)"/></g><rect class="cls-4" x="3.38" y="91.47" width="0.53" height="1.47" transform="translate(-88.57 95.85) rotate(-90)"/><rect class="cls-4" x="3.38" y="90.64" width="0.53" height="1.47" transform="translate(-87.74 95.02) rotate(-90)"/><rect class="cls-4" x="3.38" y="89.77" width="0.53" height="1.47" transform="translate(-86.87 94.15) rotate(-90)"/><rect class="cls-4" x="66.86" y="96.64" width="0.53" height="1.47" transform="translate(-30.26 164.5) rotate(-90)"/><rect class="cls-4" x="66.86" y="95.81" width="0.53" height="1.47" transform="translate(-29.42 163.67) rotate(-90)"/><rect class="cls-4" x="66.86" y="94.94" width="0.53" height="1.47" transform="translate(-28.55 162.8) rotate(-90)"/><g class="cls-5"><polygon class="cls-4" points="54.97 103.75 54.97 104.47 55.85 103.97 56.72 104.47 56.72 103.75 55.85 103.26 54.97 103.75"/><polygon class="cls-4" points="54.97 102.55 54.97 103.26 55.85 102.76 56.72 103.26 56.72 102.55 55.85 102.05 54.97 102.55"/><polygon class="cls-4" points="54.97 101.34 54.97 102.05 55.85 101.56 56.72 102.05 56.72 101.34 55.85 100.84 54.97 101.34"/></g><g class="cls-5"><rect class="cls-4" x="3.63" y="115.95" width="0.8" height="0.8" transform="translate(-112.32 120.38) rotate(-90)"/><rect class="cls-4" x="3.63" y="113.91" width="0.8" height="0.8" transform="translate(-110.28 118.33) rotate(-90)"/><rect class="cls-4" x="3.63" y="114.93" width="0.8" height="0.8" transform="translate(-111.3 119.35) rotate(-90)"/><rect class="cls-4" x="3.63" y="112.89" width="0.8" height="0.8" transform="translate(-109.26 117.31) rotate(-90)"/><rect class="cls-4" x="3.63" y="111.86" width="0.8" height="0.8" transform="translate(-108.24 116.29) rotate(-90)"/></g><g class="cls-5"><rect class="cls-4" x="17.98" y="110.58" width="0.81" height="1.19" transform="translate(-92.79 129.57) rotate(-90)"/><rect class="cls-4" x="17.98" y="111.95" width="0.81" height="1.19" transform="translate(-94.15 130.93) rotate(-90)"/><rect class="cls-4" x="17.98" y="113.31" width="0.81" height="1.19" transform="translate(-95.52 132.3) rotate(-90)"/></g><polygon class="cls-6" points="26.65 50.2 25.79 49.34 24.93 50.2 25.69 50.2 25.69 58.37 25.89 58.37 25.89 50.2 26.65 50.2"/><path class="cls-4" d="M65.44,92.31V93H63.77v-.68Zm-.12.56v-.44H63.89v.44Z"/><path class="cls-4" d="M65.44,91.43v.68H63.77v-.68Zm-.12.56v-.44H63.89V92Z"/><path class="cls-4" d="M65.44,90.51v.68H63.77v-.68Zm-.12.56v-.44H63.89v.44Z"/><rect class="cls-4" x="54.59" y="66.73" width="0.12" height="11.75"/><polygon class="cls-4" points="60.9 85.31 62.23 86.64 62.23 89.17 62.35 89.17 62.35 86.58 60.99 85.22 60.9 85.31"/><path class="cls-4" d="M98.44,108.85v.68H96.76v-.68Zm-.12.56V109H96.88v.44Z"/><path class="cls-4" d="M98.44,108v.68H96.76V108Zm-.12.56v-.44H96.88v.44Z"/><path class="cls-4" d="M98.44,107.05v.68H96.76v-.68Zm-.12.56v-.43H96.88v.43Z"/><rect class="cls-4" x="120.74" y="107.57" width="0.56" height="1.55" transform="translate(12.67 229.37) rotate(-90)"/><rect class="cls-4" x="120.74" y="106.69" width="0.56" height="1.55" transform="translate(13.55 228.49) rotate(-90)"/><rect class="cls-4" x="120.74" y="105.78" width="0.56" height="1.55" transform="translate(14.46 227.57) rotate(-90)"/><path class="cls-4" d="M97.86,88.37v.69L97,88.64l-.83.42v-.69L97,88Zm-.12.49v-.42L97,88.09l-.71.35v.42l.71-.35Z"/><path class="cls-4" d="M97.86,87.42v.7L97,87.7l-.83.42v-.7L97,87Zm-.12.5V87.5L97,87.15l-.71.35v.42l.71-.35Z"/><path class="cls-4" d="M97.86,86.48v.7L97,86.76l-.83.42v-.7l.83-.41Zm-.12.5v-.42L97,86.2l-.71.36V87l.71-.35Z"/><rect class="cls-4" x="88.79" y="72.68" width="0.12" height="5.23" transform="translate(-27.22 84.88) rotate(-45)"/><polygon class="cls-4" points="120.34 90.78 119.94 91.18 119.66 90.36 118.84 90.08 119.24 89.68 120.06 89.96 120.34 90.78"/><polygon class="cls-4" points="121 90.12 120.61 90.51 120.33 89.69 119.51 89.41 119.9 89.02 120.72 89.3 121 90.12"/><polygon class="cls-4" points="121.67 89.45 121.27 89.85 120.99 89.03 120.17 88.75 120.57 88.35 121.39 88.63 121.67 89.45"/><g class="cls-5"><rect class="cls-4" x="60.5" y="95.01" width="0.53" height="1.47" transform="translate(-34.98 156.52) rotate(-90)"/><rect class="cls-4" x="60.5" y="94.18" width="0.53" height="1.47" transform="translate(-34.15 155.69) rotate(-90)"/><rect class="cls-4" x="60.5" y="93.31" width="0.53" height="1.47" transform="translate(-33.28 154.82) rotate(-90)"/></g><g class="cls-5"><polygon class="cls-4" points="114.3 61.73 114.3 62.82 115.65 62.06 116.99 62.82 116.99 61.73 115.65 60.97 114.3 61.73"/><polygon class="cls-4" points="114.3 60.15 114.3 61.24 115.65 60.48 116.99 61.24 116.99 60.15 115.65 59.39 114.3 60.15"/><polygon class="cls-4" points="114.3 58.57 114.3 59.66 115.65 58.9 116.99 59.66 116.99 58.57 115.65 57.8 114.3 58.57"/></g><g class="cls-5"><polygon class="cls-4" points="59.94 52.95 59.94 53.67 60.82 53.17 61.69 53.67 61.69 52.95 60.82 52.46 59.94 52.95"/><polygon class="cls-4" points="59.94 51.75 59.94 52.46 60.82 51.96 61.69 52.46 61.69 51.75 60.82 51.25 59.94 51.75"/><polygon class="cls-4" points="59.94 50.54 59.94 51.25 60.82 50.76 61.69 51.25 61.69 50.54 60.82 50.04 59.94 50.54"/><polygon class="cls-4" points="59.94 49.33 59.94 50.04 60.82 49.55 61.69 50.04 61.69 49.33 60.82 48.84 59.94 49.33"/><polygon class="cls-4" points="59.94 48.13 59.94 48.84 60.82 48.34 61.69 48.84 61.69 48.13 60.82 47.63 59.94 48.13"/></g><g class="cls-5"><polygon class="cls-4" points="126.6 101.16 126.6 101.87 127.47 101.37 128.35 101.87 128.35 101.16 127.47 100.66 126.6 101.16"/><polygon class="cls-4" points="126.6 99.95 126.6 100.66 127.47 100.17 128.35 100.66 128.35 99.95 127.47 99.45 126.6 99.95"/><polygon class="cls-4" points="126.6 98.74 126.6 99.45 127.47 98.96 128.35 99.45 128.35 98.74 127.47 98.25 126.6 98.74"/></g><g class="cls-5"><rect class="cls-4" x="56.91" y="114.01" width="0.8" height="0.8" transform="translate(-57.1 171.71) rotate(-90)"/><rect class="cls-4" x="56.91" y="111.97" width="0.8" height="0.8" transform="translate(-55.06 169.67) rotate(-90)"/><rect class="cls-4" x="56.91" y="112.99" width="0.8" height="0.8" transform="translate(-56.08 170.69) rotate(-90)"/><rect class="cls-4" x="56.91" y="110.95" width="0.8" height="0.8" transform="translate(-54.04 168.65) rotate(-90)"/><rect class="cls-4" x="56.91" y="109.92" width="0.8" height="0.8" transform="translate(-53.02 167.63) rotate(-90)"/></g><g class="cls-5"><rect class="cls-4" x="84.05" y="115.95" width="0.8" height="0.8" transform="translate(-31.9 200.79) rotate(-90)"/><rect class="cls-4" x="85.34" y="115.95" width="0.8" height="0.8" transform="translate(-30.61 202.09) rotate(-90)"/><rect class="cls-4" x="84.05" y="114.93" width="0.8" height="0.8" transform="translate(-30.88 199.77) rotate(-90)"/><rect class="cls-4" x="85.34" y="114.93" width="0.8" height="0.8" transform="translate(-29.59 201.06) rotate(-90)"/></g><g class="cls-5"><rect class="cls-4" x="119.33" y="111.95" width="0.81" height="1.19" transform="translate(7.19 232.28) rotate(-90)"/><rect class="cls-4" x="119.33" y="113.31" width="0.81" height="1.19" transform="translate(5.82 233.64) rotate(-90)"/><rect class="cls-4" x="119.33" y="114.68" width="0.81" height="1.19" transform="translate(4.46 235.01) rotate(-90)"/></g></g></svg>