<?xml version="1.0" encoding="utf-8"?>
<!-- Generator: Adobe Illustrator 22.1.0, SVG Export Plug-In . SVG Version: 6.00 Build 0)  -->
<svg version="1.1"
	 id="svg2" xmlns:cc="http://creativecommons.org/ns#" xmlns:dc="http://purl.org/dc/elements/1.1/" xmlns:inkscape="http://www.inkscape.org/namespaces/inkscape" xmlns:ns1="http://sozi.baierouge.fr" xmlns:rdf="http://www.w3.org/1999/02/22-rdf-syntax-ns#" xmlns:sodipodi="http://sodipodi.sourceforge.net/DTD/sodipodi-0.dtd" xmlns:svg="http://www.w3.org/2000/svg"
	 xmlns="http://www.w3.org/2000/svg" xmlns:xlink="http://www.w3.org/1999/xlink" x="0px" y="0px" viewBox="0 0 171 85.1"
	 style="enable-background:new 0 0 171 85.1;" xml:space="preserve">
<g id="layer1" transform="translate(-404.07 -763.77)">
	<path id="path3057" d="M502.8,836.1c-2.4-1.6-3.6-2.9-2.8-3c0.8-0.2,1.4-1.5,1.4-3c-0.1-3.4,0.5-5.5,1.8-6.4
		c0.5-0.4,1.1-1.2,1.1-1.8c0.1-0.6,0.2-1.3,0.3-1.6c0.1-0.3,1.4,0.3,2.9,1.2l2.8,1.7l-2.3-2.6c-1.3-1.4-3.5-2.9-5-3.2
		c-3.5-0.8-8.2-4.7-6.4-5.4c1-0.4,1-0.8-0.3-2.2c-0.9-1-1.8-3.3-2-5.1c-0.8-6.4-1.6-7.8-5.1-8.5c-4.1-0.8-6.2-0.1-7.1,2.3
		c-0.4,1-1.7,2.8-3,4.1s-3.8,5.3-5.6,8.8c-2.4,4.9-4.2,6.9-6.9,8.3c-2,1-5,3.8-6.8,6.1c-3.4,4.6-8.9,7.9-13,7.7l-2.6-0.1l2.7-0.8
		c4.2-1.3,8.5-4.7,11.9-9.6c2.1-3.1,4-4.7,6-5.1c3-0.6,6.7-5.6,8.4-11.3c0.4-1.4,2.2-4.1,4-6.2s3.8-4.6,4.4-5.8c1-1.9,1.7-2,6.8-1.5
		c3.1,0.4,6.2,1,6.9,1.5s2.4,3.4,3.8,6.4c1.5,3,3.1,5.5,3.5,5.5c0.5,0,1.8-1.2,2.9-2.8c4.2-5.6,4.9-6.1,8.8-5.2
		c2,0.4,3.9,1.2,4.2,1.7c1,1.6,4.8,3.2,7.4,3.2c2.8,0,5.2,2.4,6.1,6.2c0.3,1.5,1.3,3.4,2.2,4.2c1.4,1.4,7.5,3.6,10.1,3.6
		c0.6,0,2.1,1.2,3.3,2.8s3.8,3.5,5.8,4.5c2.6,1.3,3,1.6,1.2,1.3l-2.5-0.5l2.8,2.4c4.1,3.6,1.7,3-4.3-1.1c-2.8-2-5.6-3.4-6.2-3.2
		c-0.6,0.2,0.8,1.6,3.1,3.2c2.3,1.6,3.9,3.1,3.7,3.3c-0.6,0.6-4.7-1.6-7.3-4c-1.2-1.1-2.6-1.7-3-1.3c-0.7,0.7,0,1.4,5.2,5.1
		c1.8,1.3,1.6,1.4-2.5,1c-5-0.4-10.8-2.9-9.1-4c0.6-0.4,2.3,0.1,3.7,1.1c2.1,1.4,2.6,1.5,2.2,0.3c-0.3-0.8-1.8-1.9-3.5-2.5
		c-1.7-0.5-5.7-3-8.9-5.5c-6-4.5-12.5-8.3-13.1-7.6c-0.2,0.2,1.3,1.3,3.3,2.5c4.4,2.6,3.9,3.8-0.8,1.8c-4.4-1.8-7.1-5.7-5.2-7.5
		c1.1-1,2-0.8,4.6,0.8c1.8,1.1,3.7,2,4.3,2s-0.8-1.1-3-2.5s-4-3.3-4.1-4.2c0-1-0.6-2.8-1.4-4.1l-1.3-2.4l-1.9,3.1
		c-2.8,4.5-6.4,6.5-8.9,5.2c-1.3-0.7-2-0.7-2,0c0,0.6,2.4,2.2,5.3,3.7s6.6,3.7,8.2,4.9c5.4,4.1,10.5,6.5,12.8,6
		c1.5-0.3,3.3,0.5,5.7,2.6c1.9,1.7,2.7,2.8,1.8,2.5c-1-0.3-1.8-0.2-1.8,0.4s0.5,1,1.1,1s2.7,1.1,4.7,2.5c2.3,1.6,3.1,2.5,2,2.5
		c-1.9,0-6.2-2.3-15.1-8.1c-3.3-2.2-6.6-3.9-7.2-3.9c-0.6,0-2.4-1.3-4-3c-2.7-2.8-11-6.8-12-5.8c-0.3,0.3,1.2,1.3,3.3,2.4
		s5.5,3.4,7.7,5.2s6.3,4.4,9.2,5.8c5.2,2.4,7.6,4.5,5.3,4.5c-0.6,0-3.6-1.3-6.6-3s-5.8-3-6.2-3c-0.9,0,4.1,3.9,5.1,4
		c0.4,0,2.8,1.6,5.3,3.5c5.3,4.1,4.8,4.5-1.3,1c-4.4-2.5-5.9-1.8-2,0.9c1.8,1.3,1.9,1.6,0.5,1.6c-0.9,0-1.7,0.5-1.7,1.1
		s-0.8,0.9-1.9,0.6s-2.7,0-3.6,0.5c-1.4,0.8-1.6,0.7-1-0.3c0.6-0.9,0.3-1.1-1-0.6c-2.1,0.8-4.6-0.9-4-2.7c0.3-0.7-0.8-1.3-2.7-1.4
		l-3.2-0.2l3.4,2.9C509.1,839.6,508.3,839.7,502.8,836.1L502.8,836.1z M529.2,825.9c-0.3-0.5-1.2-1-1.8-1c-0.7,0-0.6,0.4,0.3,1
		C529.6,827.1,529.9,827.1,529.2,825.9L529.2,825.9z M536.7,819.9c-7.8-6-7.5-5.8-8.7-4.4c-1.6,1.7-0.7,4.1,1.9,4.8
		c1.6,0.4,1.8,0.3,0.8-0.9c-2.2-2.6-0.2-2.6,2.4,0c1.4,1.4,3.4,2.5,4.4,2.5C538.9,821.8,538.8,821.5,536.7,819.9L536.7,819.9z
		 M544.7,820.4c-0.7-0.8-1.7-1.5-2.2-1.5c-0.6,0-0.4,0.7,0.2,1.5c0.7,0.8,1.7,1.5,2.2,1.5C545.5,821.9,545.4,821.2,544.7,820.4z
		 M527.7,812.9c0-1.1-8.7-7-10.4-7c-0.5,0-0.1,0.9,0.9,2s2.4,2,3,2c0.7,0,2.3,0.9,3.6,2C527.6,814.2,527.7,814.2,527.7,812.9
		L527.7,812.9z M524.7,806.9c0-0.5-0.5-1-1.1-1s-0.8,0.5-0.4,1c0.3,0.5,0.8,1,1.1,1C524.5,807.9,524.7,807.4,524.7,806.9z
		 M497.6,836.2c-1.2-1.5-1.2-1.6,0.9-0.5c2.3,1.2,2.9,2.1,1.4,2.1C499.3,837.9,498.3,837.1,497.6,836.2L497.6,836.2z M530.3,834.4
		c-3-2.3-1.4-2.6,2-0.4c1.6,1.1,2.3,1.9,1.5,1.9C532.9,835.8,531.3,835.2,530.3,834.4L530.3,834.4z M495.2,816.9
		c-0.8-1.3,0.5-1.3,2.5,0c1.3,0.8,1.3,1-0.2,1C496.6,817.9,495.5,817.4,495.2,816.9L495.2,816.9z"/>
</g>
<g>
	<path d="M43.7,21.8c2.6,0,4.7-2.1,4.7-4.7s-2.1-4.7-4.7-4.7c-2.6,0-4.7,2.1-4.7,4.7S41.1,21.8,43.7,21.8z"/>
	<path d="M35.8,22.6c0.2-0.7-0.3-1.4-1-1.6L31,20c-0.7-0.2-1.4,0.3-1.6,1l-3.3,13.5c-0.2,0.7,0.3,1.4,1,1.6L31,37
		c0.7,0.2,1.4-0.3,1.6-1C32.6,36.1,35.8,22.6,35.8,22.6z"/>
	<path d="M53.8,70.6C53.8,70.6,53.8,70.7,53.8,70.6c0,0.7,0.5,1.1,1.1,1.1c0.5,0,1-0.4,1.1-0.9l7.8-42.4v-0.1c0-0.6-0.5-1.1-1.1-1.1
		c-0.5,0-1,0.4-1.1,0.9L53.8,70.6L53.8,70.6z"/>
	<path d="M27.7,67.8c0,0.2-0.1,0.4-0.1,0.7c0,1.8,1.5,3.3,3.3,3.3c1.5,0,2.7-1,3.1-2.3l5.6-23.3L45,69.4c0.3,1.4,1.6,2.5,3.2,2.5
		c1.8,0,3.3-1.5,3.3-3.3c0-0.3,0-0.5-0.1-0.7L44.1,37l0.6-2.7l0.5,2.1c0.4,1.4,1.7,1.5,1.7,1.5l7.6,1.9c0.2,0,0.3,0,0.5,0
		c1.2,0,2.2-1,2.2-2.2c0-1.1-0.7-2-1.7-2.2l-6.6-1.7l-1.8-7.3c-0.9-4.1-4.8-4-4.8-4c-3.8-0.1-4.8,3.9-4.8,3.9L27.7,67.8L27.7,67.8z"
		/>
</g>
</svg>
