<svg id="Layer_1" data-name="Layer 1" xmlns="http://www.w3.org/2000/svg" viewBox="0 0 176.68 114"><defs><style>.cls-1{fill:none;stroke:#67308f;stroke-miterlimit:10;stroke-width:4px;}.cls-2{fill:#010101;}</style></defs><title>Artboard 1</title><circle class="cls-1" cx="88.59" cy="45" r="39.43"/><path class="cls-1" d="M87.53,67.89H79.14C72.85,67.9,68,66.25,64.78,63c-2.92-3-4.32-7-4.17-12V26.87h7V51.15c-.1,3.09.6,5.35,2.15,6.91,2.48,2.5,6.9,2.92,10.17,2.84h7.61"/><line class="cls-1" x1="88.28" y1="45.34" x2="112.44" y2="24.24"/><line class="cls-1" x1="112.44" y1="65.76" x2="88.28" y2="44.66"/><line class="cls-1" x1="88.28" y1="5.25" x2="88.28" y2="84.11"/><path class="cls-2" d="M14.69,106.7v2.38H6.1V99.16H8.48v7.54Z"/><path class="cls-2" d="M26.17,104.13A5.23,5.23,0,1,1,21,98.9,5.22,5.22,0,0,1,26.17,104.13Zm-2.29,0A2.94,2.94,0,1,0,21,107.06,2.94,2.94,0,0,0,23.88,104.13Z"/><path class="cls-2" d="M37.49,107.22h0a5.23,5.23,0,1,1-4.2-8.35,4.9,4.9,0,0,1,4.09,2L35.55,102a3.11,3.11,0,0,0-2.27-.88,2.94,2.94,0,1,0,2.12,5v-1h-3v-1.91h5.09Z"/><path class="cls-2" d="M46.16,107.72h-4.8l-.68,1.36H38l4.93-9.92h1.8l4.74,9.92H46.83Zm-.93-1.94-1.48-3.19-1.4,3.19Z"/><path class="cls-2" d="M60.54,99.16v9.92H58.16l-4.94-5.94v5.94H50.84V99.16h2.38l4.94,6.18V99.16Z"/><path class="cls-2" d="M72.86,105.25l-1,1v2.79H69.47V99.16h2.38v4l4.09-4h3l-4.45,4.33,4.71,5.59H75.85Z"/><path class="cls-2" d="M87.38,109.08l-1.64-2.47H84v2.47H81.58V99.16H86.4A3.7,3.7,0,0,1,90,103.07a3.28,3.28,0,0,1-1.78,3l2.19,3ZM84,104.42h2a1.38,1.38,0,0,0,1.48-1.35A1.47,1.47,0,0,0,86,101.6H84Z"/><path class="cls-2" d="M101.25,99.16V104a5.05,5.05,0,1,1-10.09,0V99.16h2.43V104a2.62,2.62,0,1,0,5.23,0V99.16Z"/><path class="cls-2" d="M113.48,99.16v9.92H111.1V104l-2.34,5.07h-1l-2.28-5v5H103V99.16h2.4v0l2.8,5.57,2.86-5.62v0Z"/><path class="cls-2" d="M124.21,105.91a3.09,3.09,0,0,1-3.07,3.17h-5.6V99.16h5.31a2.9,2.9,0,0,1,3,3,3.59,3.59,0,0,1-.41,1.68A3.18,3.18,0,0,1,124.21,105.91ZM117.92,103h2.79a1,1,0,0,0,0-1.94h-2.79Zm4.11,3a1,1,0,0,0-1-1.06h-3.13v2.11h3.13A1,1,0,0,0,122,106Z"/><path class="cls-2" d="M135.23,99.16v9.92h-2.38v-3.63h-4.33v3.63h-2.39V99.16h2.39v4.15h4.33V99.16Z"/><path class="cls-2" d="M144.88,107.72h-4.81l-.67,1.36h-2.69l4.93-9.92h1.8l4.75,9.92h-2.64Zm-.93-1.94-1.48-3.19-1.41,3.19Z"/><path class="cls-2" d="M157.94,107.72h-4.8l-.67,1.36h-2.69l4.93-9.92h1.8l4.74,9.92h-2.64Zm-.93-1.94-1.48-3.19-1.4,3.19Z"/><path class="cls-2" d="M168.11,109.08l-1.63-2.47h-1.74v2.47h-2.43V99.16h4.82a3.7,3.7,0,0,1,3.56,3.91,3.29,3.29,0,0,1-1.77,3l2.18,3Zm-3.37-4.66h2a1.38,1.38,0,0,0,1.48-1.35,1.47,1.47,0,0,0-1.46-1.47h-2Z"/></svg>